<?xml version="1.0" standalone="no"?>
<!DOCTYPE svg PUBLIC "-//W3C//DTD SVG 1.0//EN" "http://www.w3.org/TR/2001/REC-SVG-20010904/DTD/svg10.dtd">
<svg xmlns="http://www.w3.org/2000/svg" xmlns:xlink="http://www.w3.org/1999/xlink" id="body_1" width="92" height="617">

<defs>
    <clipPath  id="1">

    <path id=""  clip-rule="evenodd" transform="matrix(1 0 0 1 0 0)"  d="M0 463L0 -0.5L0 -0.5L69 -0.5L69 -0.5L69 463L69 463L0 463z" />    </clipPath>
</defs>

<g transform="matrix(1.3333 0 0 1.3333 0 0)">
	<g clip-path="url(#1)" >
    <path id=""  transform="matrix(1 0 0 -1 0 463)"  d="M28.999874 122.86801C 27.703875 122.86801 26.479874 123.108 25.327875 123.58801L25.327875 123.58801L25.327875 123.58801C 24.175877 124.04401 23.239876 124.752014 22.519875 125.712006L22.519875 125.712006L22.519875 125.712006C 21.823875 126.672 21.475876 127.87201 21.475876 129.31198L21.475876 129.31198L21.475876 129.31198C 21.475876 130.56 21.715876 131.53201 22.195875 132.228L22.195875 132.228L22.195875 132.228C 22.699875 132.92401 23.311874 133.41602 24.031876 133.70401L24.031876 133.70401L24.031876 133.70401C 24.751873 133.992 25.435875 134.13599 26.083874 134.13599L26.083874 134.13599L26.083874 134.13599C 25.435875 133.44 24.943874 132.672 24.607876 131.832L24.607876 131.832L24.607876 131.832C 24.271873 130.992 24.103874 130.15201 24.103874 129.31198L24.103874 129.31198L24.103874 129.31198C 24.103874 128.42401 24.295876 127.59601 24.679876 126.828L24.679876 126.828L24.679876 126.828C 25.087875 126.06 25.699875 125.448 26.515875 124.992004L26.515875 124.992004L26.515875 124.992004C 27.331875 124.51199 28.363876 124.272 29.611874 124.272L29.611874 124.272L29.611874 124.272C 30.691875 124.272 31.747875 124.47598 32.779877 124.884L32.779877 124.884L32.779877 124.884C 33.811874 125.268005 34.651875 125.843994 35.299877 126.612L35.299877 126.612L35.299877 126.612C 35.971878 127.40399 36.307877 128.376 36.307877 129.52802L36.307877 129.52802L36.307877 129.52802C 36.307877 130.56 36.043873 131.448 35.515877 132.19202L35.515877 132.19202L35.515877 132.19202C 34.987877 132.93597 34.303875 133.59601 33.463875 134.172L33.463875 134.172L33.463875 134.172C 32.647873 134.74799 31.771873 135.29999 30.835873 135.828L30.835873 135.828L30.835873 135.828C 29.899876 136.35602 29.011875 136.90802 28.171875 137.48401L28.171875 137.48401L28.171875 137.48401C 27.355873 138.08398 26.683874 138.768 26.155876 139.53601L26.155876 139.53601L26.155876 139.53601C 25.627876 140.30399 25.363876 141.228 25.363876 142.30798L25.363876 142.30798L25.363876 142.30798C 25.363876 143.31601 25.603874 144.37201 26.083874 145.47598L26.083874 145.47598L26.083874 145.47598C 26.563873 146.58002 27.247875 147.624 28.135876 148.608L28.135876 148.608L28.135876 148.608C 29.047874 149.59198 30.127876 150.384 31.375874 150.98401L31.375874 150.98401L31.375874 150.98401C 32.647873 151.608 34.063873 151.91998 35.623875 151.91998L35.623875 151.91998L35.623875 151.91998C 37.039875 151.91998 38.023876 151.57202 38.575874 150.876L38.575874 150.876L38.575874 150.876C 39.127876 150.20401 39.403877 149.35199 39.403877 148.32L39.403877 148.32L39.403877 148.32C 39.403877 147.456 39.247875 146.51999 38.935875 145.512L38.935875 145.512L38.935875 145.512C 38.647873 144.52802 38.287872 143.58002 37.855873 142.668L37.855873 142.668L37.855873 142.668C 37.423874 141.78 37.015877 141.02402 36.631874 140.40002L36.631874 140.40002L36.631874 140.40002C 36.199875 140.496 35.887875 140.676 35.695877 140.94L35.695877 140.94L35.695877 140.94C 35.527874 141.228 35.443874 141.56403 35.443874 141.948L35.443874 141.948L35.443874 141.948C 35.443874 142.452 35.551876 143.02802 35.767876 143.676L35.767876 143.676L35.767876 143.676C 35.983875 144.324 36.223877 144.996 36.487877 145.69202L36.487877 145.69202L36.487877 145.69202C 36.775875 146.388 37.027874 147.06 37.243874 147.70801L37.243874 147.70801L37.243874 147.70801C 37.459873 148.38 37.567875 148.98001 37.567875 149.508L37.567875 149.508L37.567875 149.508C 37.567875 149.988 37.423874 150.36002 37.135876 150.624L37.135876 150.624L37.135876 150.624C 36.847878 150.91199 36.319874 151.056 35.551876 151.056L35.551876 151.056L35.551876 151.056C 34.423874 151.056 33.379875 150.79199 32.419876 150.26398L32.419876 150.26398L32.419876 150.26398C 31.459873 149.73602 30.619875 149.052 29.899876 148.212L29.899876 148.212L29.899876 148.212C 29.179876 147.396 28.615875 146.53201 28.207874 145.62L28.207874 145.62L28.207874 145.62C 27.823875 144.70801 27.631874 143.88 27.631874 143.13599L27.631874 143.13599L27.631874 143.13599C 27.631874 142.24799 27.883877 141.48001 28.387875 140.832L28.387875 140.832L28.387875 140.832C 28.915874 140.20801 29.587875 139.63199 30.403877 139.104L30.403877 139.104L30.403877 139.104C 31.219875 138.59998 32.083874 138.08398 32.995872 137.556L32.995872 137.556L32.995872 137.556C 33.931877 137.052 34.807877 136.488 35.623875 135.86401L35.623875 135.86401L35.623875 135.86401C 36.439873 135.23999 37.099876 134.496 37.603874 133.63199L37.603874 133.63199L37.603874 133.63199C 38.131874 132.79199 38.395874 131.76001 38.395874 130.53601L38.395874 130.53601L38.395874 130.53601C 38.395874 129.288 38.119873 128.18399 37.567875 127.224L37.567875 127.224L37.567875 127.224C 37.015877 126.287994 36.271873 125.496 35.335873 124.84799L35.335873 124.84799L35.335873 124.84799C 34.423874 124.20001 33.415874 123.70801 32.311874 123.37201L32.311874 123.37201L32.311874 123.37201C 31.207874 123.03601 30.103874 122.86801 28.999874 122.86801zM47.51175 190.23602C 47.34375 190.35602 47.18775 190.5 47.043747 190.668L47.043747 190.668L47.043747 190.668C 46.89975 190.836 46.82775 191.02802 46.82775 191.24402L46.82775 191.24402L46.82775 191.24402C 46.82775 191.556 46.99575 191.952 47.33175 192.432L47.33175 192.432L47.33175 192.432C 47.667747 192.93597 48.015755 193.452 48.375748 193.98001L48.375748 193.98001L48.375748 193.98001C 48.735752 194.508 48.975754 194.988 49.09575 195.41998L49.09575 195.41998L49.09575 195.41998C 49.335747 195.41998 49.53975 195.31198 49.70775 195.09601L49.70775 195.09601L49.70775 195.09601C 49.89975 194.90399 49.99575 194.676 49.99575 194.41199L49.99575 194.41199L49.99575 194.41199C 49.99575 194.09998 49.851753 193.70401 49.56375 193.224L49.56375 193.224L49.56375 193.224C 49.27575 192.74402 48.92775 192.23999 48.519753 191.712L48.519753 191.712L48.519753 191.712C 48.13575 191.18399 47.79975 190.69202 47.51175 190.23602zM34.147873 179.86801C 34.507877 181.452 34.927876 183.048 35.407875 184.656L35.407875 184.656L35.407875 184.656C 35.887875 186.288 36.391876 187.836 36.919876 189.29999L36.919876 189.29999L36.919876 189.29999C 37.471878 190.76398 37.987877 192.048 38.467876 193.15201L38.467876 193.15201L38.467876 193.15201C 37.723877 192.69601 36.859875 191.88 35.875874 190.70401L35.875874 190.70401L35.875874 190.70401C 34.915874 189.552 33.895874 188.13599 32.815876 186.456L32.815876 186.456L32.815876 186.456C 31.735874 184.79999 30.631874 182.97598 29.503876 180.98401L29.503876 180.98401L29.503876 180.98401C 30.319874 180.81601 31.123875 180.624 31.915874 180.40802L31.915874 180.40802L31.915874 180.40802C 32.731876 180.216 33.475876 180.03601 34.147873 179.86801zM22.303875 166.36801C 21.775875 166.68 21.439875 167.01599 21.295876 167.376L21.295876 167.376L21.295876 167.376C 21.151875 167.712 21.079876 168 21.079876 168.23999L21.079876 168.23999L21.079876 168.23999C 21.079876 168.91199 21.319876 169.824 21.799875 170.97598L21.799875 170.97598L21.799875 170.97598C 22.303875 172.12799 22.963875 173.43597 23.779875 174.90002L23.779875 174.90002L23.779875 174.90002C 24.619875 176.388 25.543873 177.92401 26.551876 179.508L26.551876 179.508L26.551876 179.508C 25.663874 179.58002 24.907875 179.62799 24.283876 179.65201L24.283876 179.65201L24.283876 179.65201C 23.659874 179.676 23.119875 179.68802 22.663876 179.68802L22.663876 179.68802L22.663876 179.68802L22.663876 179.68802L21.403875 179.68802L21.403875 179.68802L21.403875 179.68802C 21.667873 180.384 22.123875 180.86401 22.771873 181.12799L22.771873 181.12799L22.771873 181.12799C 23.443874 181.41602 24.235874 181.56 25.147873 181.56L25.147873 181.56L25.147873 181.56C 25.555876 181.56 25.975874 181.53601 26.407875 181.488L26.407875 181.488L26.407875 181.488C 26.839874 181.44 27.283876 181.38 27.739876 181.30798L27.739876 181.30798L27.739876 181.30798C 28.963875 183.156 30.211876 184.944 31.483875 186.672L31.483875 186.672L31.483875 186.672C 32.779877 188.42401 33.979874 189.97198 35.083874 191.31601L35.083874 191.31601L35.083874 191.31601C 36.211876 192.68399 37.147873 193.716 37.891876 194.41199L37.891876 194.41199L37.891876 194.41199C 38.587875 195.08398 39.16387 195.41998 39.619873 195.41998L39.619873 195.41998L39.619873 195.41998C 39.883877 195.41998 40.171875 195.31198 40.483875 195.09601L40.483875 195.09601L40.483875 195.09601C 40.819874 194.90399 41.167873 194.62799 41.527874 194.268L41.527874 194.268L41.527874 194.268C 41.287872 194.07599 40.975876 193.56 40.591877 192.72L40.591877 192.72L40.591877 192.72C 40.231876 191.90399 39.835873 190.87201 39.403877 189.624L39.403877 189.624L39.403877 189.624C 38.995872 188.376 38.587875 187.008 38.17988 185.51999L38.17988 185.51999L38.17988 185.51999C 37.771873 184.03201 37.387875 182.508 37.027874 180.948L37.027874 180.948L37.027874 180.948C 36.691875 179.41199 36.415874 177.948 36.199875 176.556L36.199875 176.556L36.199875 176.556C 36.007877 175.164 35.911873 173.94 35.911873 172.884L35.911873 172.884L35.911873 172.884C 35.911873 171.97198 36.007877 171.26398 36.199875 170.76001L36.199875 170.76001L36.199875 170.76001C 36.415874 170.25598 36.763878 170.004 37.243874 170.004L37.243874 170.004L37.243874 170.004C 37.867874 170.004 38.575874 170.43597 39.367874 171.29999L39.367874 171.29999L39.367874 171.29999C 40.159874 172.164 41.023876 173.508 41.959873 175.332L41.959873 175.332L42.319874 174.97198C 41.599876 173.052 40.675877 171.48001 39.547874 170.25598L39.547874 170.25598L39.547874 170.25598C 38.443874 169.03201 37.291874 168.41998 36.091877 168.41998L36.091877 168.41998L36.091877 168.41998C 35.107876 168.41998 34.387875 168.85199 33.931877 169.716L33.931877 169.716L33.931877 169.716C 33.499874 170.604 33.283875 171.78 33.283875 173.24402L33.283875 173.24402L33.283875 173.24402C 33.283875 174.012 33.331875 174.85199 33.427876 175.76398L33.427876 175.76398L33.427876 175.76398C 33.547874 176.676 33.703873 177.624 33.895874 178.608L33.895874 178.608L33.895874 178.608C 32.839874 178.776 31.867876 178.90802 30.979874 179.004L30.979874 179.004L30.979874 179.004C 30.115875 179.124 29.311874 179.232 28.567875 179.328L28.567875 179.328L28.567875 179.328C 27.439873 177.23999 26.335873 175.09198 25.255875 172.884L25.255875 172.884L25.255875 172.884C 24.199875 170.676 23.215876 168.504 22.303875 166.36801zM20.323875 209.832C 20.419874 210.72 20.743876 211.36801 21.295876 211.776L21.295876 211.776L21.295876 211.776C 21.823875 212.16 22.519875 212.412 23.383875 212.53201L23.383875 212.53201L23.383875 212.53201C 24.247875 212.65201 25.183874 212.712 26.191875 212.712L26.191875 212.712L26.191875 212.712C 26.623875 213.64801 27.055876 214.788 27.487877 216.13199L27.487877 216.13199L27.487877 216.13199C 27.919876 217.5 28.327875 218.96399 28.711876 220.52402L28.711876 220.52402L28.711876 220.52402C 29.119875 222.084 29.515875 223.668 29.899876 225.276L29.899876 225.276L29.899876 225.276C 30.283876 226.908 30.643875 228.46799 30.979874 229.956L30.979874 229.956L30.979874 229.956C 31.315876 231.444 31.627876 232.776 31.915874 233.952L31.915874 233.952L31.915874 233.952C 32.227875 235.15201 32.503876 236.09999 32.743874 236.79599L32.743874 236.79599L32.743874 236.79599C 31.495874 236.772 30.427876 236.73601 29.539875 236.68802L29.539875 236.68802L29.539875 236.68802C 28.675877 236.63998 27.859875 236.56801 27.091877 236.47198L27.091877 236.47198L27.091877 236.47198C 26.347876 236.376 25.531876 236.244 24.643875 236.076L24.643875 236.076L24.643875 236.076C 24.811874 236.988 25.471876 237.672 26.623875 238.12799L26.623875 238.12799L26.623875 238.12799C 27.775875 238.608 29.563873 238.84799 31.987877 238.84799L31.987877 238.84799L31.987877 238.84799C 33.187874 238.84799 34.399876 238.79999 35.623875 238.70401L35.623875 238.70401L35.623875 238.70401C 36.871872 238.608 38.011875 238.5 39.043873 238.38L39.043873 238.38L39.043873 238.38C 40.075874 238.284 40.867874 238.18802 41.419876 238.092L41.419876 238.092L41.419876 238.092C 40.843876 237.51599 40.231876 237.156 39.583874 237.012L39.583874 237.012L39.583874 237.012C 38.959873 236.892 38.407875 236.832 37.927876 236.832L37.927876 236.832L37.927876 236.832C 37.183876 236.832 36.475876 236.832 35.803875 236.832L35.803875 236.832L35.803875 236.832C 35.155876 236.832 34.555878 236.82 34.003876 236.79599L34.003876 236.79599L34.003876 236.79599C 33.907875 236.29199 33.763878 235.5 33.571877 234.42L33.571877 234.42L33.571877 234.42C 33.379875 233.36401 33.151875 232.13998 32.887875 230.748L32.887875 230.748L32.887875 230.748C 32.623875 229.38 32.347878 227.952 32.059875 226.46399L32.059875 226.46399L32.059875 226.46399C 31.771873 225 31.483875 223.596 31.195877 222.252L31.195877 222.252L31.195877 222.252C 30.931875 220.93199 30.679876 219.79199 30.439873 218.832L30.439873 218.832L30.439873 218.832C 30.055876 217.29599 29.623875 216 29.143875 214.944L29.143875 214.944L29.143875 214.944C 28.663874 213.888 28.087875 213.13199 27.415874 212.676L27.415874 212.676L27.415874 212.676C 28.663874 212.60399 29.995874 212.48401 31.411875 212.31601L31.411875 212.31601L31.411875 212.31601C 32.827873 212.124 34.099876 212.01599 35.227875 211.992L35.227875 211.992L35.227875 211.992C 34.531876 211.29599 33.799877 210.86401 33.031876 210.69601L33.031876 210.69601L33.031876 210.69601C 32.287872 210.52802 31.663874 210.444 31.159876 210.444L31.159876 210.444L31.159876 210.444C 30.199875 210.444 29.251873 210.444 28.315876 210.444L28.315876 210.444L28.315876 210.444C 27.403877 210.42 26.491875 210.39601 25.579874 210.37201L25.579874 210.37201L25.579874 210.37201C 24.691875 210.34799 23.803875 210.29999 22.915874 210.228L22.915874 210.228L22.915874 210.228C 22.051876 210.13199 21.187874 210 20.323875 209.832zM27.559874 253.36801C 26.815876 253.36801 26.107876 253.47598 25.435875 253.69202L25.435875 253.69202L25.435875 253.69202C 24.763876 253.884 24.187874 254.31601 23.707874 254.988L23.707874 254.988L23.707874 254.988C 23.947876 256.13998 24.235874 257.376 24.571877 258.696L24.571877 258.696L24.571877 258.696C 24.931875 260.04 25.315876 261.40802 25.723875 262.8L25.723875 262.8L25.723875 262.8C 26.131874 264.216 26.539875 265.596 26.947876 266.94L26.947876 266.94L26.947876 266.94C 27.379875 268.30798 27.787874 269.58002 28.171875 270.75598L28.171875 270.75598L28.171875 270.75598C 28.555876 271.932 28.903877 272.964 29.215874 273.852L29.215874 273.852L29.215874 273.852C 29.527874 274.74 29.767874 275.412 29.935875 275.868L29.935875 275.868L29.935875 275.868C 30.007877 276.06 30.127876 276.336 30.295876 276.69598L30.295876 276.69598L30.295876 276.69598C 30.463875 277.08002 30.667873 277.464 30.907875 277.84802L30.907875 277.84802L30.907875 277.84802C 31.147873 278.232 31.423874 278.556 31.735874 278.82L31.735874 278.82L31.735874 278.82C 32.047874 279.108 32.383877 279.252 32.743874 279.252L32.743874 279.252L32.743874 279.252C 33.079872 279.252 33.415874 279.132 33.751873 278.892L33.751873 278.892L33.751873 278.892C 33.007877 277.164 32.251873 275.25598 31.483875 273.168L31.483875 273.168L31.483875 273.168C 30.739876 271.08002 30.019875 268.91998 29.323875 266.68802L29.323875 266.68802L29.323875 266.68802C 28.627876 264.48 27.991875 262.32 27.415874 260.208L27.415874 260.208L27.415874 260.208C 26.839874 258.096 26.359875 256.176 25.975874 254.448L25.975874 254.448L25.975874 254.448C 26.311874 254.40001 26.587875 254.36401 26.803875 254.34L26.803875 254.34L26.803875 254.34C 27.043873 254.31601 27.283876 254.30399 27.523876 254.30399L27.523876 254.30399L27.523876 254.30399C 29.059874 254.30399 30.535875 254.664 31.951876 255.384L31.951876 255.384L31.951876 255.384C 33.391876 256.08002 34.723877 257.04 35.947876 258.26398L35.947876 258.26398L35.947876 258.26398C 37.195877 259.512 38.287872 260.92798 39.223877 262.512L39.223877 262.512L39.223877 262.512C 40.159874 264.12 40.879875 265.81198 41.383877 267.588L41.383877 267.588L41.383877 267.588C 41.911873 269.388 42.175877 271.176 42.175877 272.952L42.175877 272.952L42.175877 272.952C 42.175877 274.896 41.863876 276.492 41.239876 277.74L41.239876 277.74L41.239876 277.74C 40.615875 279.01202 39.751873 279.948 38.647873 280.548L38.647873 280.548L38.647873 280.548C 37.543873 281.148 36.259876 281.448 34.795876 281.448L34.795876 281.448L34.795876 281.448C 33.235874 281.448 31.831875 281.136 30.583874 280.51202L30.583874 280.51202L30.583874 280.51202C 29.335873 279.888 28.351875 279.048 27.631874 277.992L27.631874 277.992L27.631874 277.992C 26.911875 276.936 26.551876 275.748 26.551876 274.428L26.551876 274.428L26.551876 274.428C 26.551876 274.14 26.563873 273.888 26.587875 273.672L26.587875 273.672L26.587875 273.672C 26.635876 273.456 26.683874 273.264 26.731876 273.096L26.731876 273.096L26.731876 273.096C 25.939873 273.096 25.375874 273.288 25.039875 273.672L25.039875 273.672L25.039875 273.672C 24.727875 274.08002 24.571877 274.56 24.571877 275.112L24.571877 275.112L24.571877 275.112C 24.571877 275.952 24.859875 276.792 25.435875 277.632L25.435875 277.632L25.435875 277.632C 26.035875 278.496 26.851875 279.288 27.883877 280.008L27.883877 280.008L27.883877 280.008C 28.939873 280.728 30.151875 281.30402 31.519875 281.736L31.519875 281.736L31.519875 281.736C 32.887875 282.19202 34.339874 282.41998 35.875874 282.41998L35.875874 282.41998L35.875874 282.41998C 38.035873 282.41998 39.763878 281.976 41.059875 281.088L41.059875 281.088L41.059875 281.088C 42.379875 280.224 43.339874 279.048 43.939873 277.56L43.939873 277.56L43.939873 277.56C 44.539875 276.072 44.839874 274.404 44.839874 272.556L44.839874 272.556L44.839874 272.556C 44.839874 270.468 44.515877 268.464 43.867874 266.544L43.867874 266.544L43.867874 266.544C 43.219875 264.648 42.319874 262.896 41.167873 261.288L41.167873 261.288L41.167873 261.288C 40.039875 259.704 38.743874 258.31198 37.279877 257.112L37.279877 257.112L37.279877 257.112C 35.815876 255.93599 34.243874 255.02402 32.563873 254.376L32.563873 254.376L32.563873 254.376C 30.907875 253.70401 29.239876 253.36801 27.559874 253.36801zM23.347876 296.868C 23.635876 298.02002 23.995874 299.30402 24.427876 300.72L24.427876 300.72L24.427876 300.72C 24.859875 302.136 25.375874 303.81598 25.975874 305.76L25.975874 305.76L25.975874 305.76C 26.599874 307.728 27.319874 310.056 28.135876 312.74402L28.135876 312.74402L28.135876 312.74402C 28.951876 315.432 29.899876 318.612 30.979874 322.284L30.979874 322.284L30.979874 322.284C 31.027874 322.404 31.075876 322.608 31.123875 322.896L31.123875 322.896L31.123875 322.896C 31.195877 323.208 31.231876 323.496 31.231876 323.76L31.231876 323.76L31.231876 323.76C 31.231876 324 31.183874 324.19202 31.087875 324.336L31.087875 324.336L31.087875 324.336C 31.015875 324.504 30.883877 324.588 30.691875 324.588L30.691875 324.588L30.691875 324.588C 30.115875 324.588 29.563873 324.36 29.035875 323.904L29.035875 323.904L29.035875 323.904C 28.531876 323.472 28.087875 322.91998 27.703875 322.248L27.703875 322.248L27.703875 322.248C 27.343876 321.576 27.055876 320.868 26.839874 320.124L26.839874 320.124L26.839874 320.124C 26.623875 319.404 26.515875 318.75598 26.515875 318.18L26.515875 318.18L26.515875 318.18C 26.515875 317.7 26.575876 317.28 26.695877 316.91998L26.695877 316.91998L26.695877 316.91998C 25.903877 316.91998 25.339874 317.112 25.003876 317.496L25.003876 317.496L25.003876 317.496C 24.691875 317.904 24.535875 318.396 24.535875 318.972L24.535875 318.972L24.535875 318.972C 24.535875 319.788 24.775875 320.604 25.255875 321.41998L25.255875 321.41998L25.255875 321.41998C 25.735874 322.236 26.347876 322.97998 27.091877 323.65198L27.091877 323.65198L27.091877 323.65198C 27.835873 324.34802 28.615875 324.9 29.431875 325.30798L29.431875 325.30798L29.431875 325.30798C 30.271873 325.716 31.039875 325.91998 31.735874 325.91998L31.735874 325.91998L31.735874 325.91998C 32.455875 325.91998 33.043873 325.608 33.499874 324.984L33.499874 324.984L33.499874 324.984C 33.979874 324.384 34.363876 323.544 34.651875 322.464L34.651875 322.464L34.651875 322.464C 34.939873 321.40802 35.17988 320.208 35.371872 318.864L35.371872 318.864L35.371872 318.864C 35.563873 317.52002 35.743874 316.128 35.911873 314.688L35.911873 314.688L35.911873 314.688C 36.055878 313.48798 36.199875 312.288 36.343876 311.088L36.343876 311.088L36.343876 311.088C 36.487877 309.912 36.631874 308.784 36.775875 307.704L36.775875 307.704L36.775875 307.704C 36.919876 306.648 37.051876 305.676 37.171875 304.788L37.171875 304.788L37.171875 304.788C 37.291874 303.9 37.399876 303.168 37.495872 302.59198L37.495872 302.59198L37.495872 302.59198C 37.66387 303.72 37.903877 304.992 38.215874 306.40802L38.215874 306.40802L38.215874 306.40802C 38.551876 307.84802 38.911873 309.336 39.295876 310.872L39.295876 310.872L39.295876 310.872C 39.703873 312.432 40.123875 313.944 40.555878 315.40802L40.555878 315.40802L40.555878 315.40802C 40.987877 316.896 41.383877 318.252 41.743874 319.476L41.743874 319.476L41.743874 319.476C 42.127876 320.724 42.451874 321.75598 42.715874 322.572L42.715874 322.572L42.715874 322.572C 43.003876 323.412 43.195877 323.94 43.291874 324.156L43.291874 324.156L43.291874 324.156C 43.411873 324.468 43.687874 324.84 44.119873 325.272L44.119873 325.272L44.119873 325.272C 44.551876 325.704 45.031876 325.91998 45.559875 325.91998L45.559875 325.91998L45.559875 325.91998C 45.151875 324.81598 44.683876 323.46 44.155876 321.852L44.155876 321.852L44.155876 321.852C 43.651875 320.268 43.135876 318.54 42.607876 316.668L42.607876 316.668L42.607876 316.668C 42.079872 314.82 41.563873 312.924 41.059875 310.97998L41.059875 310.97998L41.059875 310.97998C 40.555878 309.06 40.099876 307.2 39.691875 305.4L39.691875 305.4L39.691875 305.4C 39.307877 303.6 38.995872 301.956 38.755875 300.468L38.755875 300.468L38.755875 300.468C 38.539875 299.004 38.419876 297.80402 38.395874 296.868L38.395874 296.868L38.395874 296.868C 37.651875 296.868 37.039875 297.08398 36.559875 297.516L36.559875 297.516L36.559875 297.516C 36.103874 297.948 35.779877 298.704 35.587875 299.784L35.587875 299.784L35.587875 299.784C 35.467876 300.40802 35.311874 301.26 35.119873 302.34L35.119873 302.34L35.119873 302.34C 34.951874 303.444 34.759876 304.668 34.543873 306.01202L34.543873 306.01202L34.543873 306.01202C 34.351875 307.35602 34.147873 308.748 33.931877 310.188L33.931877 310.188L33.931877 310.188C 33.715874 311.65198 33.499874 313.08002 33.283875 314.472L33.283875 314.472L33.283875 314.472C 33.091877 315.864 32.911873 317.136 32.743874 318.288L32.743874 318.288L32.743874 318.288C 32.575874 319.464 32.431877 320.436 32.311874 321.204L32.311874 321.204L32.311874 321.204C 31.159876 317.052 30.175877 313.536 29.359875 310.656L29.359875 310.656L29.359875 310.656C 28.543873 307.8 27.847876 305.46 27.271873 303.636L27.271873 303.636L27.271873 303.636C 26.719875 301.836 26.227875 300.444 25.795876 299.46L25.795876 299.46L25.795876 299.46C 25.363876 298.476 24.955875 297.80402 24.571877 297.444L24.571877 297.444L24.571877 297.444C 24.187874 297.06 23.779875 296.868 23.347876 296.868zM28.171875 340.368C 26.731876 340.368 25.483875 340.668 24.427876 341.268L24.427876 341.268L24.427876 341.268C 23.371876 341.868 22.555874 342.66 21.979874 343.64398L21.979874 343.64398L21.979874 343.64398C 21.427876 344.65198 21.151875 345.74402 21.151875 346.91998L21.151875 346.91998L21.151875 346.91998C 21.151875 348.024 21.391874 349.104 21.871876 350.16L21.871876 350.16L21.871876 350.16C 22.351875 351.216 23.011875 352.176 23.851875 353.04L23.851875 353.04L23.851875 353.04C 24.715874 353.928 25.711876 354.648 26.839874 355.2L26.839874 355.2L26.839874 355.2C 27.967876 355.776 29.179876 356.124 30.475874 356.24402L30.475874 356.24402L30.475874 356.24402C 29.539875 357.01202 28.843876 357.9 28.387875 358.90802L28.387875 358.90802L28.387875 358.90802C 27.955875 359.91602 27.739876 360.924 27.739876 361.932L27.739876 361.932L27.739876 361.932C 27.739876 363.204 28.051876 364.404 28.675877 365.532L28.675877 365.532L28.675877 365.532C 29.323875 366.68402 30.211876 367.608 31.339874 368.30402L31.339874 368.30402L31.339874 368.30402C 32.467876 369.024 33.739876 369.384 35.155876 369.384L35.155876 369.384L35.155876 369.384C 36.499874 369.384 37.519875 369.048 38.215874 368.376L38.215874 368.376L38.215874 368.376C 38.911873 367.704 39.259876 366.74402 39.259876 365.496L39.259876 365.496L39.259876 365.496C 39.259876 364.608 39.103874 363.74402 38.791874 362.904L38.791874 362.904L38.791874 362.904C 38.479874 362.064 38.095875 361.38 37.639877 360.852L37.639877 360.852L37.639877 360.852C 37.207874 360.324 36.787872 360.06 36.379875 360.06L36.379875 360.06L36.379875 360.06C 36.115875 360.06 35.863876 360.168 35.623875 360.384L35.623875 360.384L35.623875 360.384C 35.383877 360.624 35.191875 360.9 35.047874 361.212L35.047874 361.212L35.047874 361.212C 35.887875 361.956 36.595875 362.736 37.171875 363.552L37.171875 363.552L37.171875 363.552C 37.771873 364.392 38.071877 365.28 38.071877 366.216L38.071877 366.216L38.071877 366.216C 38.071877 366.96 37.855873 367.536 37.423874 367.944L37.423874 367.944L37.423874 367.944C 36.991875 368.352 36.355873 368.556 35.515877 368.556L35.515877 368.556L35.515877 368.556C 34.411873 368.556 33.475876 368.22 32.707874 367.548L32.707874 367.548L32.707874 367.548C 31.939873 366.9 31.351875 366.024 30.943874 364.91998L30.943874 364.91998L30.943874 364.91998C 30.559874 363.84 30.367876 362.64 30.367876 361.32L30.367876 361.32L30.367876 361.32C 30.367876 360.456 30.499874 359.52002 30.763876 358.51202L30.763876 358.51202L30.763876 358.51202C 31.027874 357.504 31.591877 356.628 32.455875 355.884L32.455875 355.884L32.455875 355.884C 30.847876 355.62 29.443874 355.008 28.243876 354.048L28.243876 354.048L28.243876 354.048C 27.067875 353.088 26.143875 351.96 25.471876 350.664L25.471876 350.664L25.471876 350.664C 24.823875 349.368 24.499874 348.08398 24.499874 346.812L24.499874 346.812L24.499874 346.812C 24.499874 346.02002 24.643875 345.216 24.931875 344.4L24.931875 344.4L24.931875 344.4C 25.243876 343.608 25.735874 342.948 26.407875 342.41998L26.407875 342.41998L26.407875 342.41998C 27.079874 341.868 27.979874 341.59198 29.107876 341.59198L29.107876 341.59198L29.107876 341.59198C 30.379875 341.59198 31.639875 341.952 32.887875 342.672L32.887875 342.672L32.887875 342.672C 34.159874 343.392 35.323875 344.34 36.379875 345.516L36.379875 345.516L36.379875 345.516C 37.435875 346.69202 38.275875 347.964 38.899876 349.332L38.899876 349.332L39.403877 348.972C 38.563873 347.34 37.579872 345.876 36.451874 344.58002L36.451874 344.58002L36.451874 344.58002C 35.323875 343.284 34.063873 342.264 32.671875 341.52002L32.671875 341.52002L32.671875 341.52002C 31.279877 340.752 29.779877 340.368 28.171875 340.368zM41.167873 383.436C 40.279877 383.436 39.571877 383.82 39.043873 384.588L39.043873 384.588L39.043873 384.588C 38.515877 385.332 38.251873 386.22 38.251873 387.252L38.251873 387.252L38.251873 387.252C 38.251873 387.588 38.275875 388.03198 38.323875 388.58398L38.323875 388.58398L38.323875 388.58398C 38.395874 389.16 38.479874 389.80798 38.575874 390.528L38.575874 390.528L38.575874 390.528C 37.687874 388.56 36.607876 386.964 35.335873 385.74L35.335873 385.74L35.335873 385.74C 34.063873 384.492 32.551876 383.86798 30.799877 383.86798L30.799877 383.86798L30.799877 383.86798C 29.263876 383.86798 28.099874 384.336 27.307875 385.272L27.307875 385.272L27.307875 385.272C 26.515875 386.208 26.119875 387.372 26.119875 388.764L26.119875 388.764L26.119875 388.764C 26.119875 389.7 26.263876 390.80402 26.551876 392.076L26.551876 392.076L26.551876 392.076C 26.863876 393.372 27.247875 394.752 27.703875 396.216L27.703875 396.216L27.703875 396.216C 28.159876 397.704 28.603874 399.204 29.035875 400.716L29.035875 400.716L29.035875 400.716C 29.491875 402.228 29.863876 403.668 30.151875 405.036L30.151875 405.036L30.151875 405.036C 30.463875 406.428 30.619875 407.664 30.619875 408.744L30.619875 408.744L30.619875 408.744C 30.619875 410.856 29.947876 411.912 28.603874 411.912L28.603874 411.912L28.603874 411.912C 27.955875 411.912 27.391874 411.69598 26.911875 411.264L26.911875 411.264L26.911875 411.264C 26.431875 410.856 26.035875 410.328 25.723875 409.68L25.723875 409.68L25.723875 409.68C 25.411875 409.03198 25.171875 408.348 25.003876 407.628L25.003876 407.628L25.003876 407.628C 24.859875 406.908 24.787874 406.26 24.787874 405.684L24.787874 405.684L24.787874 405.684C 24.787874 405.348 24.811874 405.024 24.859875 404.712L24.859875 404.712L24.859875 404.712C 24.907875 404.4 24.979874 404.136 25.075876 403.91998L25.075876 403.91998L25.075876 403.91998C 24.163874 403.91998 23.515875 404.16 23.131876 404.64L23.131876 404.64L23.131876 404.64C 22.771873 405.144 22.591875 405.732 22.591875 406.404L22.591875 406.404L22.591875 406.404C 22.591875 407.148 22.771873 407.904 23.131876 408.672L23.131876 408.672L23.131876 408.672C 23.491875 409.44 23.983875 410.136 24.607876 410.76L24.607876 410.76L24.607876 410.76C 25.255875 411.408 25.987877 411.924 26.803875 412.308L26.803875 412.308L26.803875 412.308C 27.643875 412.716 28.531876 412.91998 29.467876 412.91998L29.467876 412.91998L29.467876 412.91998C 30.787874 412.91998 31.735874 412.524 32.311874 411.732L32.311874 411.732L32.311874 411.732C 32.887875 410.94 33.175877 409.884 33.175877 408.564L33.175877 408.564L33.175877 408.564C 33.175877 407.676 33.067875 406.692 32.851875 405.612L32.851875 405.612L32.851875 405.612C 32.635876 404.556 32.359875 403.44 32.023876 402.264L32.023876 402.264L32.023876 402.264C 31.687874 401.112 31.327875 399.948 30.943874 398.772L30.943874 398.772L30.943874 398.772C 30.391874 397.02002 29.887875 395.31598 29.431875 393.66L29.431875 393.66L29.431875 393.66C 28.975874 392.028 28.747875 390.588 28.747875 389.34L28.747875 389.34L28.747875 389.34C 28.747875 388.236 28.975874 387.288 29.431875 386.496L29.431875 386.496L29.431875 386.496C 29.911875 385.704 30.691875 385.30798 31.771873 385.30798L31.771873 385.30798L31.771873 385.30798C 32.755875 385.30798 33.655876 385.63202 34.471878 386.28L34.471878 386.28L34.471878 386.28C 35.287872 386.904 36.007877 387.72 36.631874 388.728L36.631874 388.728L36.631874 388.728C 37.255875 389.736 37.783875 390.80402 38.215874 391.932L38.215874 391.932L38.215874 391.932C 38.647873 393.06 38.983875 394.104 39.223877 395.064L39.223877 395.064L39.223877 395.064C 39.559875 396.504 39.931877 398.028 40.339874 399.636L40.339874 399.636L40.339874 399.636C 40.747875 401.268 41.167873 402.864 41.599876 404.424L41.599876 404.424L41.599876 404.424C 42.055878 406.008 42.499874 407.436 42.931877 408.708L42.931877 408.708L42.931877 408.708C 43.387875 409.98 43.831875 411 44.263878 411.768L44.263878 411.768L44.263878 411.768C 44.695877 412.536 45.103874 412.91998 45.487877 412.91998L45.487877 412.91998L45.487877 412.91998C 45.67988 412.91998 45.943874 412.812 46.279877 412.596L46.279877 412.596L46.279877 412.596C 46.615875 412.404 46.951874 412.128 47.287872 411.768L47.287872 411.768L47.287872 411.768C 47.095875 411.624 46.795876 411.108 46.387875 410.22L46.387875 410.22L46.387875 410.22C 45.979874 409.356 45.523876 408.24 45.019875 406.872L45.019875 406.872L45.019875 406.872C 44.515877 405.504 44.011875 403.992 43.507877 402.336L43.507877 402.336L43.507877 402.336C 43.003876 400.704 42.535873 399.036 42.103874 397.332L42.103874 397.332L42.103874 397.332C 41.671875 395.652 41.323875 394.044 41.059875 392.508L41.059875 392.508L41.059875 392.508C 40.795876 390.972 40.66387 389.64 40.66387 388.512L40.66387 388.512L40.66387 388.512C 40.66387 386.85602 40.879875 385.74 41.311874 385.164L41.311874 385.164L41.311874 385.164C 41.767876 384.588 42.511875 384.3 43.543873 384.3L43.543873 384.3L43.543873 384.3C 43.087875 383.988 42.655876 383.772 42.247875 383.652L42.247875 383.652L42.247875 383.652C 41.863876 383.508 41.503876 383.436 41.167873 383.436zM28.711876 443.856C 30.031876 443.904 31.339874 444.048 32.635876 444.288L32.635876 444.288L32.635876 444.288C 33.955875 444.552 35.155876 444.96 36.235874 445.512L36.235874 445.512L36.235874 445.512C 37.315876 446.064 38.17988 446.784 38.827873 447.672L38.827873 447.672L38.827873 447.672C 39.499874 448.56 39.835873 449.664 39.835873 450.984L39.835873 450.984L39.835873 450.984C 39.835873 452.232 39.535873 453.192 38.935875 453.864L38.935875 453.864L38.935875 453.864C 38.359875 454.536 37.603874 455.004 36.667873 455.268L36.667873 455.268L36.667873 455.268C 35.755875 455.532 34.783875 455.664 33.751873 455.664L33.751873 455.664L33.751873 455.664C 33.631874 455.664 33.511875 455.664 33.391876 455.664L33.391876 455.664L33.391876 455.664C 33.295876 455.664 33.187874 455.652 33.067875 455.628L33.067875 455.628L33.067875 455.628C 32.203873 453.948 31.411875 452.1 30.691875 450.08398L30.691875 450.08398L30.691875 450.08398C 29.995874 448.068 29.335873 445.992 28.711876 443.856zM26.371874 427.368C 25.051876 427.368 24.055876 427.596 23.383875 428.052L23.383875 428.052L23.383875 428.052C 22.711874 428.484 22.375874 429.216 22.375874 430.248L22.375874 430.248L22.375874 430.248C 22.375874 430.32 22.435875 430.356 22.555874 430.356L22.555874 430.356L22.555874 430.356C 22.723875 430.356 23.023874 430.296 23.455875 430.176L23.455875 430.176L23.455875 430.176C 23.887875 430.056 24.715874 429.996 25.939873 429.996L25.939873 429.996L25.939873 429.996C 28.003876 429.996 29.911875 430.224 31.663874 430.68L31.663874 430.68L31.663874 430.68C 33.415874 431.16 34.927876 431.80798 36.199875 432.624L36.199875 432.624L36.199875 432.624C 37.495872 433.44 38.491875 434.352 39.187874 435.36L39.187874 435.36L39.187874 435.36C 39.907875 436.392 40.267876 437.448 40.267876 438.528L40.267876 438.528L40.267876 438.528C 40.267876 439.512 39.991875 440.30402 39.439873 440.904L39.439873 440.904L39.439873 440.904C 38.887875 441.504 38.155876 441.96 37.243874 442.272L37.243874 442.272L37.243874 442.272C 36.355873 442.58398 35.383877 442.788 34.327873 442.884L34.327873 442.884L34.327873 442.884C 33.271873 443.004 32.227875 443.064 31.195877 443.064L31.195877 443.064L31.195877 443.064C 30.739876 443.064 30.271873 443.052 29.791874 443.028L29.791874 443.028L29.791874 443.028C 29.335873 443.028 28.903877 443.028 28.495874 443.028L28.495874 443.028L28.495874 443.028C 27.943874 441.08398 27.403877 439.128 26.875874 437.16L26.875874 437.16L26.875874 437.16C 26.347876 435.19202 25.807875 433.284 25.255875 431.436L25.255875 431.436L25.255875 431.436C 24.655876 431.436 24.151875 431.604 23.743876 431.94L23.743876 431.94L23.743876 431.94C 23.335875 432.276 23.131876 432.684 23.131876 433.164L23.131876 433.164L23.131876 433.164C 23.131876 433.452 23.191875 433.788 23.311874 434.172L23.311874 434.172L23.311874 434.172C 23.431875 434.556 23.539875 434.904 23.635876 435.216L23.635876 435.216L23.635876 435.216C 23.779875 435.696 24.031876 436.5 24.391874 437.628L24.391874 437.628L24.391874 437.628C 24.751873 438.756 25.183874 440.076 25.687874 441.588L25.687874 441.588L25.687874 441.588C 26.215874 443.1 26.791874 444.684 27.415874 446.34L27.415874 446.34L27.415874 446.34C 28.039875 447.996 28.675877 449.616 29.323875 451.2L29.323875 451.2L29.323875 451.2C 29.995874 452.784 30.643875 454.188 31.267874 455.412L31.267874 455.412L31.267874 455.412C 30.259876 455.244 29.407875 455.004 28.711876 454.692L28.711876 454.692L28.711876 454.692C 28.039875 454.38 27.511875 454.092 27.127876 453.828L27.127876 453.828L27.127876 453.828C 26.743876 453.588 26.467876 453.468 26.299877 453.468L26.299877 453.468L26.299877 453.468C 26.179876 453.468 26.023876 453.516 25.831875 453.612L25.831875 453.612L25.831875 453.612C 25.663874 453.732 25.507877 453.864 25.363876 454.008L25.363876 454.008L25.363876 454.008C 25.219875 454.176 25.147873 454.32 25.147873 454.44L25.147873 454.44L25.147873 454.44C 26.347876 454.944 27.595875 455.4 28.891874 455.808L28.891874 455.808L28.891874 455.808C 30.211876 456.216 31.807875 456.42 33.67988 456.42L33.67988 456.42L33.67988 456.42C 34.471878 456.42 35.347878 456.348 36.307877 456.204L36.307877 456.204L36.307877 456.204C 37.267876 456.084 38.17988 455.82 39.043873 455.412L39.043873 455.412L39.043873 455.412C 39.907875 455.028 40.615875 454.452 41.167873 453.684L41.167873 453.684L41.167873 453.684C 41.719875 452.94 41.995872 451.944 41.995872 450.69598L41.995872 450.69598L41.995872 450.69598C 41.995872 449.52 41.743874 448.512 41.239876 447.672L41.239876 447.672L41.239876 447.672C 40.735874 446.856 40.075874 446.172 39.259876 445.62L39.259876 445.62L39.259876 445.62C 38.443874 445.092 37.555878 444.672 36.595875 444.36L36.595875 444.36L36.595875 444.36C 35.635876 444.048 34.687874 443.82 33.751873 443.676L33.751873 443.676L33.751873 443.676C 35.527874 443.58 36.955875 443.328 38.035873 442.92L38.035873 442.92L38.035873 442.92C 39.139877 442.512 39.967876 442.02 40.519875 441.444L40.519875 441.444L40.519875 441.444C 41.095875 440.892 41.479874 440.30402 41.671875 439.68L41.671875 439.68L41.671875 439.68C 41.863876 439.056 41.959873 438.456 41.959873 437.88L41.959873 437.88L41.959873 437.88C 41.959873 436.488 41.599876 435.228 40.879875 434.1L40.879875 434.1L40.879875 434.1C 40.159874 432.972 39.211876 431.988 38.035873 431.148L38.035873 431.148L38.035873 431.148C 36.859875 430.30798 35.575874 429.612 34.183876 429.06L34.183876 429.06L34.183876 429.06C 32.791874 428.484 31.411875 428.064 30.043873 427.8L30.043873 427.8L30.043873 427.8C 28.675877 427.512 27.451876 427.368 26.371874 427.368z" stroke="#FFFFFF" stroke-width="1" fill="#833939" fill-rule="nonzero" />
    <path id=""  transform="matrix(1 0 0 -1 0 463)"  d="M0 93L0 93L0 93L68.88375 93L68.88375 93L68.88375 0.5385132L68.88375 0.5385132L0 0.5385132z" stroke="#FFFFFF" stroke-width="0.75" fill="none" stroke-opacity="0" />
    <path id=""  transform="matrix(1 0 0 -1 0 463)"  d="M18.646349 57.710266L18.646349 57.710266L18.646349 57.710266L50.237324 57.710266L50.237324 57.710266L50.237324 35.82773L50.237324 35.82773L18.646349 35.82773z" stroke="#FFFFFF" stroke-width="0.75" fill="none" stroke-opacity="0" />
	</g>
</g>
</svg>