<svg width="42" height="41" viewBox="0 0 42 41" fill="none" xmlns="http://www.w3.org/2000/svg">
<g clip-path="url(#clip0_20_9)">
<path d="M39.5294 10.5H30.4705V9.67647C30.4705 7.27392 29.5161 4.96977 27.8173 3.27091C26.1184 1.57205 23.8143 0.617645 21.4117 0.617645C19.0092 0.617645 16.705 1.57205 15.0062 3.27091C13.3073 4.96977 12.3529 7.27392 12.3529 9.67647V10.5H3.29407C2.63883 10.5 2.01043 10.7603 1.5471 11.2236C1.08378 11.6869 0.823486 12.3153 0.823486 12.9706V37.6765C0.823486 38.3317 1.08378 38.9601 1.5471 39.4234C2.01043 39.8868 2.63883 40.1471 3.29407 40.1471H39.5294C40.1846 40.1471 40.813 39.8868 41.2763 39.4234C41.7397 38.9601 42 38.3317 42 37.6765V12.9706C42 12.3153 41.7397 11.6869 41.2763 11.2236C40.813 10.7603 40.1846 10.5 39.5294 10.5ZM14 9.67647C14 7.71075 14.7808 5.82554 16.1708 4.43556C17.5608 3.04558 19.446 2.2647 21.4117 2.2647C23.3774 2.2647 25.2627 3.04558 26.6526 4.43556C28.0426 5.82554 28.8235 7.71075 28.8235 9.67647V10.5H14V9.67647ZM40.3529 37.6765C40.3529 37.8949 40.2661 38.1044 40.1117 38.2588C39.9572 38.4132 39.7478 38.5 39.5294 38.5H3.29407C3.07566 38.5 2.86619 38.4132 2.71175 38.2588C2.55731 38.1044 2.47055 37.8949 2.47055 37.6765V12.9706C2.47055 12.7522 2.55731 12.5427 2.71175 12.3883C2.86619 12.2338 3.07566 12.1471 3.29407 12.1471H12.3529V16.2647C12.3529 16.4831 12.4397 16.6926 12.5941 16.847C12.7485 17.0015 12.958 17.0882 13.1764 17.0882C13.3948 17.0882 13.6043 17.0015 13.7588 16.847C13.9132 16.6926 14 16.4831 14 16.2647V12.1471H28.8235V16.2647C28.8235 16.4831 28.9102 16.6926 29.0647 16.847C29.2191 17.0015 29.4286 17.0882 29.647 17.0882C29.8654 17.0882 30.0749 17.0015 30.2293 16.847C30.3838 16.6926 30.4705 16.4831 30.4705 16.2647V12.1471H39.5294C39.7478 12.1471 39.9572 12.2338 40.1117 12.3883C40.2661 12.5427 40.3529 12.7522 40.3529 12.9706V37.6765Z" fill="#250C00" fill-opacity="0.8"/>
</g>
<defs>
<clipPath id="clip0_20_9">
<rect width="42" height="40.1471" fill="white"/>
</clipPath>
</defs>
</svg>
