<svg width="183" height="127" viewBox="0 0 183 127" fill="none" xmlns="http://www.w3.org/2000/svg">
<path d="M182.5 63.5C182.5 98.2108 148.565 126.5 106.5 126.5C64.4352 126.5 30.5 98.2108 30.5 63.5C30.5 28.7892 64.4352 0.5 106.5 0.5C148.565 0.5 182.5 28.7892 182.5 63.5Z" stroke="#833939"/>
<rect width="152" height="70" transform="translate(0 27)" fill="white"/>
<path d="M3.408 59.088C2.496 59.088 1.808 58.936 1.344 58.632C0.88 58.328 0.64 57.824 0.624 57.12C0.624 57.04 0.68 57 0.792 57C0.92 57 1.128 57.032 1.416 57.096C1.704 57.176 2.264 57.216 3.096 57.216C4.472 57.216 5.744 57.064 6.912 56.76C8.096 56.456 9.12 56.04 9.984 55.512C10.848 54.984 11.512 54.392 11.976 53.736C12.456 53.064 12.696 52.368 12.696 51.648C12.696 51.008 12.512 50.496 12.144 50.112C11.776 49.712 11.288 49.408 10.68 49.2C10.072 48.992 9.408 48.856 8.688 48.792C7.984 48.728 7.288 48.696 6.6 48.696C6.296 48.696 5.984 48.704 5.664 48.72C5.36 48.72 5.072 48.72 4.8 48.72C4.432 49.984 4.072 51.272 3.72 52.584C3.384 53.88 3.032 55.152 2.664 56.4C2.232 56.4 1.864 56.28 1.56 56.04C1.272 55.8 1.128 55.512 1.128 55.176C1.128 55 1.16 54.792 1.224 54.552C1.304 54.296 1.384 54.048 1.464 53.808C1.56 53.488 1.728 52.96 1.968 52.224C2.208 51.488 2.496 50.624 2.832 49.632C3.168 48.64 3.536 47.6 3.936 46.512C4.352 45.424 4.776 44.36 5.208 43.32C5.64 42.264 6.064 41.328 6.48 40.512C5.824 40.64 5.272 40.808 4.824 41.016C4.376 41.208 4.024 41.384 3.768 41.544C3.528 41.704 3.352 41.784 3.24 41.784C3.144 41.784 3.032 41.744 2.904 41.664C2.776 41.584 2.656 41.488 2.544 41.376C2.448 41.248 2.4 41.136 2.4 41.04C3.216 40.704 4.072 40.4 4.968 40.128C5.864 39.856 6.944 39.72 8.208 39.72C8.752 39.72 9.352 39.768 10.008 39.864C10.664 39.944 11.288 40.12 11.88 40.392C12.472 40.648 12.96 41.032 13.344 41.544C13.728 42.056 13.92 42.728 13.92 43.56C13.92 44.312 13.752 44.96 13.416 45.504C13.096 46.032 12.672 46.48 12.144 46.848C11.616 47.2 11.04 47.488 10.416 47.712C9.792 47.92 9.176 48.08 8.568 48.192C9.688 48.288 10.6 48.472 11.304 48.744C12.024 49.016 12.568 49.344 12.936 49.728C13.32 50.096 13.584 50.488 13.728 50.904C13.872 51.304 13.944 51.688 13.944 52.056C13.944 53 13.696 53.848 13.2 54.6C12.72 55.352 12.08 56.008 11.28 56.568C10.496 57.128 9.632 57.592 8.688 57.96C7.76 58.344 6.832 58.624 5.904 58.8C4.976 58.992 4.144 59.088 3.408 59.088ZM4.968 48.048C5.864 48.016 6.744 47.912 7.608 47.736C8.472 47.56 9.256 47.296 9.96 46.944C10.68 46.576 11.256 46.104 11.688 45.528C12.12 44.952 12.336 44.232 12.336 43.368C12.336 42.568 12.136 41.952 11.736 41.52C11.336 41.072 10.816 40.768 10.176 40.608C9.552 40.432 8.88 40.344 8.16 40.344C8.112 40.344 8.056 40.344 7.992 40.344C7.944 40.344 7.888 40.344 7.824 40.344C7.264 41.448 6.752 42.664 6.288 43.992C5.824 45.304 5.384 46.656 4.968 48.048ZM16.7297 57.72C16.1857 57.72 15.7457 57.472 15.4097 56.976C15.0897 56.48 14.9297 55.912 14.9297 55.272C14.9297 54.808 15.0017 54.272 15.1457 53.664C15.2897 53.056 15.4737 52.464 15.6977 51.888C15.9377 51.296 16.1777 50.808 16.4177 50.424C16.6577 50.04 16.8737 49.848 17.0657 49.848C17.1457 49.848 17.2897 49.896 17.4977 49.992C17.7057 50.088 17.8817 50.216 18.0257 50.376C17.8497 50.648 17.6337 51.056 17.3777 51.6C17.1217 52.144 16.8977 52.736 16.7057 53.376C16.5137 54 16.4177 54.576 16.4177 55.104C16.4177 55.216 16.4337 55.4 16.4657 55.656C16.4977 55.912 16.5697 56.144 16.6817 56.352C16.8097 56.56 16.9937 56.664 17.2337 56.664C17.5377 56.664 17.8417 56.512 18.1457 56.208C18.4657 55.888 18.7857 55.488 19.1057 55.008C19.4417 54.512 19.7617 53.984 20.0657 53.424C20.3857 52.864 20.6737 52.32 20.9297 51.792C21.1857 51.264 21.4017 50.824 21.5777 50.472C21.6897 50.488 21.8417 50.528 22.0337 50.592C22.2417 50.64 22.4257 50.712 22.5857 50.808C22.7457 50.888 22.8257 51.008 22.8257 51.168C22.8257 51.232 22.7457 51.44 22.5857 51.792C22.4257 52.144 22.2417 52.576 22.0337 53.088C21.8257 53.584 21.6417 54.096 21.4817 54.624C21.3217 55.136 21.2417 55.592 21.2417 55.992C21.2417 56.264 21.2977 56.488 21.4097 56.664C21.5217 56.824 21.7137 56.904 21.9857 56.904C22.3217 56.904 22.7217 56.752 23.1857 56.448C23.6657 56.144 24.1537 55.704 24.6497 55.128C25.1457 54.552 25.5857 53.856 25.9697 53.04L26.3057 53.28C25.9697 54.144 25.5217 54.912 24.9617 55.584C24.4177 56.256 23.8337 56.776 23.2097 57.144C22.6017 57.528 22.0017 57.72 21.4097 57.72C20.9777 57.72 20.6417 57.632 20.4017 57.456C20.1617 57.28 19.9937 57.048 19.8977 56.76C19.8017 56.456 19.7457 56.136 19.7297 55.8C19.7297 55.64 19.7377 55.48 19.7537 55.32C19.7857 55.16 19.8177 55 19.8497 54.84C19.5617 55.336 19.2497 55.808 18.9137 56.256C18.5937 56.688 18.2497 57.04 17.8817 57.312C17.5137 57.584 17.1297 57.72 16.7297 57.72ZM28.1406 58.056C27.1486 58.056 26.3966 57.784 25.8846 57.24C25.3726 56.696 25.1166 56.024 25.1166 55.224C25.1166 54.52 25.2926 53.768 25.6446 52.968C26.0126 52.168 26.4926 51.416 27.0846 50.712C27.6926 50.008 28.3566 49.44 29.0766 49.008C29.8126 48.576 30.5406 48.36 31.2606 48.36C31.6446 48.36 31.9966 48.464 32.3166 48.672C32.6526 48.864 32.8206 49.264 32.8206 49.872C32.8206 50.48 32.6446 51.048 32.2926 51.576C31.9406 52.104 31.4686 52.576 30.8766 52.992C30.2846 53.408 29.6366 53.752 28.9326 54.024C28.2446 54.28 27.5486 54.448 26.8446 54.528C26.8126 54.656 26.7886 54.784 26.7726 54.912C26.7726 55.024 26.7726 55.144 26.7726 55.272C26.7726 55.464 26.7886 55.672 26.8206 55.896C26.8686 56.12 26.9566 56.336 27.0846 56.544C27.2286 56.752 27.4206 56.92 27.6606 57.048C27.9166 57.176 28.2446 57.24 28.6446 57.24C29.3326 57.24 30.0126 57.048 30.6846 56.664C31.3566 56.28 31.9806 55.776 32.5566 55.152C33.1486 54.512 33.6446 53.808 34.0446 53.04L34.4046 53.304C33.9726 54.264 33.4206 55.104 32.7486 55.824C32.0766 56.528 31.3406 57.072 30.5406 57.456C29.7566 57.856 28.9566 58.056 28.1406 58.056ZM27.0126 53.928C27.4446 53.816 27.9246 53.624 28.4526 53.352C28.9806 53.08 29.4926 52.76 29.9886 52.392C30.4846 52.008 30.8926 51.592 31.2126 51.144C31.5326 50.68 31.6926 50.2 31.6926 49.704C31.6926 49.528 31.6606 49.4 31.5966 49.32C31.5326 49.24 31.4046 49.2 31.2126 49.2C30.8446 49.2 30.4446 49.344 30.0126 49.632C29.5966 49.904 29.1886 50.272 28.7886 50.736C28.4046 51.2 28.0526 51.712 27.7326 52.272C27.4126 52.816 27.1726 53.368 27.0126 53.928ZM41.4111 57.48C40.8191 57.48 40.3711 57.328 40.0671 57.024C39.7791 56.736 39.6351 56.36 39.6351 55.896C39.6351 55.576 39.6911 55.232 39.8031 54.864C39.9311 54.496 40.0511 54.12 40.1631 53.736C40.2751 53.352 40.3311 52.984 40.3311 52.632C40.3311 52.216 40.2431 51.928 40.0671 51.768C39.8911 51.608 39.6751 51.528 39.4191 51.528C38.9231 51.528 38.4191 51.728 37.9071 52.128C37.3951 52.528 36.8991 53.04 36.4191 53.664C35.9551 54.288 35.5151 54.928 35.0991 55.584C34.6831 56.24 34.3151 56.832 33.9951 57.36C33.7231 57.36 33.4671 57.312 33.2271 57.216C32.9711 57.12 32.7711 56.976 32.6271 56.784C32.6271 56.704 32.7151 56.456 32.8911 56.04C33.0511 55.624 33.2431 55.12 33.4671 54.528C33.6911 53.936 33.8831 53.32 34.0431 52.68C34.2191 52.04 34.3071 51.464 34.3071 50.952C34.4031 50.824 34.5551 50.704 34.7631 50.592C34.9871 50.48 35.2191 50.424 35.4591 50.424C35.9391 50.424 36.1791 50.64 36.1791 51.072C36.1791 51.312 36.1151 51.696 35.9871 52.224C35.8751 52.736 35.7231 53.296 35.5311 53.904C35.9471 53.28 36.4191 52.672 36.9471 52.08C37.4751 51.472 38.0271 50.976 38.6031 50.592C39.1951 50.192 39.7791 49.992 40.3551 49.992C41.0111 49.992 41.4831 50.224 41.7711 50.688C42.0751 51.136 42.2271 51.632 42.2271 52.176C42.2271 52.672 42.1471 53.128 41.9871 53.544C41.8271 53.96 41.6591 54.36 41.4831 54.744C41.3231 55.128 41.2431 55.512 41.2431 55.896C41.2431 56.216 41.3071 56.44 41.4351 56.568C41.5791 56.68 41.7391 56.736 41.9151 56.736C42.3151 56.736 42.7151 56.552 43.1151 56.184C43.5311 55.816 43.9231 55.344 44.2911 54.768C44.6751 54.192 45.0111 53.608 45.2991 53.016L45.6111 53.352C45.2751 54.136 44.8911 54.84 44.4591 55.464C44.0431 56.072 43.5791 56.56 43.0671 56.928C42.5711 57.296 42.0191 57.48 41.4111 57.48ZM46.2536 57.72C45.9816 57.72 45.6936 57.648 45.3896 57.504C45.1016 57.36 44.8616 57.136 44.6696 56.832C44.4776 56.528 44.3816 56.136 44.3816 55.656C44.3816 55.128 44.5096 54.536 44.7656 53.88C45.0216 53.224 45.3656 52.576 45.7976 51.936C46.2296 51.28 46.7256 50.68 47.2856 50.136C47.8616 49.576 48.4616 49.136 49.0856 48.816C49.7096 48.48 50.3336 48.312 50.9576 48.312C51.3096 48.312 51.5816 48.376 51.7736 48.504C51.9656 48.616 52.0616 48.8 52.0616 49.056C52.0616 49.12 52.0536 49.192 52.0376 49.272C52.0216 49.336 51.9816 49.4 51.9176 49.464C51.8536 49.352 51.7416 49.272 51.5816 49.224C51.4216 49.16 51.2376 49.128 51.0296 49.128C50.5176 49.128 50.0136 49.288 49.5176 49.608C49.0376 49.912 48.5976 50.312 48.1976 50.808C47.7976 51.288 47.4456 51.816 47.1416 52.392C46.8376 52.952 46.5976 53.496 46.4216 54.024C46.2616 54.536 46.1816 54.976 46.1816 55.344C46.1816 55.68 46.2536 55.952 46.3976 56.16C46.5576 56.352 46.7656 56.448 47.0216 56.448C47.4536 56.448 47.9736 56.184 48.5816 55.656C49.1896 55.128 49.8136 54.376 50.4536 53.4C51.0936 52.424 51.6696 51.272 52.1816 49.944C52.5336 49.016 52.8936 48.072 53.2616 47.112C53.6456 46.152 54.0296 45.232 54.4136 44.352C54.7976 43.472 55.1736 42.688 55.5416 42C55.9096 41.296 56.2616 40.744 56.5976 40.344C56.9336 39.928 57.2296 39.72 57.4856 39.72C57.6296 39.72 57.7576 39.776 57.8696 39.888C57.9816 40 58.0376 40.144 58.0376 40.32C58.0376 40.592 57.9016 41.032 57.6296 41.64C57.3736 42.248 57.0376 42.976 56.6216 43.824C56.2056 44.672 55.7576 45.592 55.2776 46.584C54.8136 47.576 54.3736 48.592 53.9576 49.632C53.5416 50.656 53.1976 51.656 52.9256 52.632C52.6696 53.608 52.5416 54.504 52.5416 55.32C52.5416 55.752 52.5656 56.064 52.6136 56.256C52.6776 56.448 52.8296 56.544 53.0696 56.544C53.4056 56.544 53.7976 56.408 54.2456 56.136C54.6936 55.848 55.1416 55.44 55.5896 54.912C56.0376 54.384 56.4296 53.744 56.7656 52.992L57.1256 53.28C56.8056 54.112 56.3736 54.856 55.8296 55.512C55.3016 56.168 54.7336 56.68 54.1256 57.048C53.5176 57.432 52.9336 57.624 52.3736 57.624C51.7496 57.624 51.3176 57.424 51.0776 57.024C50.8376 56.624 50.7176 56.192 50.7176 55.728C50.7176 55.456 50.7496 55.128 50.8136 54.744C50.8936 54.36 50.9896 53.944 51.1016 53.496C50.5896 54.296 50.0456 55.024 49.4696 55.68C48.9096 56.32 48.3576 56.816 47.8136 57.168C47.2696 57.536 46.7496 57.72 46.2536 57.72ZM58.05 57.648C57.394 57.648 56.906 57.448 56.586 57.048C56.266 56.648 56.106 56.168 56.106 55.608C56.106 55.24 56.17 54.776 56.298 54.216C56.442 53.656 56.626 53.072 56.85 52.464C57.074 51.84 57.33 51.256 57.618 50.712C57.922 50.168 58.242 49.728 58.578 49.392C58.93 49.04 59.274 48.864 59.61 48.864C59.77 48.864 59.906 48.912 60.018 49.008C60.13 49.104 60.186 49.248 60.186 49.44C60.186 49.632 60.058 49.944 59.802 50.376C59.562 50.808 59.274 51.304 58.938 51.864C58.618 52.408 58.33 52.984 58.074 53.592C57.834 54.2 57.714 54.776 57.714 55.32C57.714 55.88 57.802 56.256 57.978 56.448C58.17 56.624 58.458 56.712 58.842 56.712C59.386 56.712 59.97 56.44 60.594 55.896C61.218 55.352 61.874 54.4 62.562 53.04L62.826 53.328C62.33 54.704 61.65 55.768 60.786 56.52C59.922 57.272 59.01 57.648 58.05 57.648ZM60.642 47.136C60.498 47.072 60.394 46.96 60.33 46.8C60.266 46.64 60.234 46.528 60.234 46.464C60.234 46.32 60.314 46.096 60.474 45.792C60.65 45.488 60.866 45.168 61.122 44.832C61.378 44.48 61.642 44.192 61.914 43.968C62.202 43.728 62.474 43.608 62.73 43.608C62.874 43.608 63.002 43.664 63.114 43.776C63.226 43.872 63.29 44.072 63.306 44.376C62.746 44.888 62.25 45.36 61.818 45.792C61.386 46.224 60.994 46.672 60.642 47.136ZM63.1693 58.128C62.6573 58.128 62.2253 57.96 61.8733 57.624C61.5053 57.288 61.3213 56.776 61.3213 56.088C61.3213 55.528 61.4493 54.92 61.7053 54.264C61.9613 53.592 62.3133 52.936 62.7613 52.296C63.2093 51.64 63.7133 51.048 64.2733 50.52C64.8493 49.992 65.4573 49.568 66.0973 49.248C66.7373 48.928 67.3773 48.768 68.0173 48.768C68.6573 48.768 69.1933 48.936 69.6253 49.272C70.0733 49.608 70.2973 50.056 70.2973 50.616C70.2973 51.016 70.1693 51.296 69.9133 51.456C69.6733 51.616 69.3693 51.688 69.0013 51.672C69.0333 51.528 69.0573 51.384 69.0733 51.24C69.1053 51.096 69.1213 50.952 69.1213 50.808C69.1213 50.456 69.0413 50.152 68.8813 49.896C68.7213 49.624 68.4253 49.488 67.9933 49.488C67.5453 49.488 67.0893 49.648 66.6253 49.968C66.1613 50.272 65.7133 50.68 65.2813 51.192C64.8653 51.704 64.4893 52.264 64.1533 52.872C63.8173 53.464 63.5533 54.048 63.3613 54.624C63.1693 55.2 63.0733 55.72 63.0733 56.184C63.0733 56.776 63.2733 57.072 63.6733 57.072C64.0413 57.072 64.4413 56.896 64.8733 56.544C65.3213 56.192 65.7693 55.752 66.2173 55.224C66.6813 54.68 67.1213 54.12 67.5373 53.544C67.9533 52.968 68.3213 52.456 68.6413 52.008C68.6893 51.912 68.7373 51.864 68.7853 51.864C68.8653 51.88 68.9853 51.912 69.1453 51.96C69.3053 52.008 69.4493 52.08 69.5773 52.176C69.7053 52.272 69.7693 52.392 69.7693 52.536C69.7693 52.68 69.6973 52.88 69.5533 53.136C69.4253 53.376 69.2653 53.656 69.0733 53.976C68.8973 54.28 68.7373 54.592 68.5933 54.912C68.4653 55.232 68.4013 55.528 68.4013 55.8C68.4013 56.04 68.4573 56.272 68.5693 56.496C68.6973 56.704 68.8973 56.808 69.1693 56.808C69.5853 56.808 70.1453 56.504 70.8493 55.896C71.5533 55.272 72.2653 54.312 72.9853 53.016L73.2973 53.328C72.9453 54.192 72.5053 54.96 71.9773 55.632C71.4493 56.288 70.8813 56.8 70.2733 57.168C69.6813 57.536 69.0893 57.72 68.4973 57.72C67.8893 57.72 67.4333 57.528 67.1293 57.144C66.8413 56.776 66.6973 56.376 66.6973 55.944C66.6973 55.864 66.6973 55.784 66.6973 55.704C66.7133 55.624 66.7293 55.536 66.7453 55.44C66.0733 56.32 65.4573 56.984 64.8973 57.432C64.3373 57.896 63.7613 58.128 63.1693 58.128ZM76.1882 43.224C76.0602 43.128 75.9322 43.016 75.8042 42.888C75.6762 42.744 75.6122 42.592 75.6122 42.432C75.6122 42.208 75.7242 41.944 75.9482 41.64C76.1882 41.32 76.4282 40.992 76.6682 40.656C76.9242 40.304 77.1002 39.984 77.1962 39.696C77.3722 39.696 77.5322 39.776 77.6762 39.936C77.8202 40.08 77.8922 40.248 77.8922 40.44C77.8922 40.648 77.7882 40.912 77.5802 41.232C77.3882 41.552 77.1562 41.888 76.8842 42.24C76.6282 42.592 76.3962 42.92 76.1882 43.224ZM78.0144 58.224C77.2464 58.224 76.6304 58.056 76.1664 57.72C75.7184 57.4 75.3984 57 75.2064 56.52C75.0144 56.024 74.9184 55.528 74.9184 55.032C74.9184 54.552 74.9824 54.184 75.1104 53.928C75.2384 53.672 75.3904 53.488 75.5664 53.376C75.7584 53.248 75.9344 53.152 76.0944 53.088C76.2704 53.024 76.3984 52.952 76.4784 52.872C76.9264 52.392 77.3504 51.872 77.7504 51.312C78.1664 50.736 78.5264 50.12 78.8304 49.464V49.2C78.8304 48.592 78.9344 48.16 79.1424 47.904C79.3504 47.648 79.5744 47.52 79.8144 47.52C79.9584 47.52 80.0624 47.56 80.1264 47.64C80.2064 47.704 80.2544 47.784 80.2704 47.88C80.2704 47.976 80.2464 48.104 80.1984 48.264C80.1504 48.424 80.1264 48.632 80.1264 48.888C80.1264 49.4 80.2304 49.968 80.4384 50.592C80.6624 51.2 80.8784 51.848 81.0864 52.536C81.3104 53.208 81.4224 53.912 81.4224 54.648C81.4224 54.84 81.4064 55.032 81.3744 55.224C81.3584 55.416 81.3344 55.592 81.3024 55.752C81.8304 55.64 82.3424 55.384 82.8384 54.984C83.3344 54.568 83.8064 53.92 84.2544 53.04L84.4944 53.28C84.1904 54.16 83.7344 54.848 83.1264 55.344C82.5344 55.824 81.8704 56.128 81.1344 56.256C80.8784 56.928 80.4704 57.424 79.9104 57.744C79.3504 58.064 78.7184 58.224 78.0144 58.224ZM77.9904 57.312C78.2304 57.312 78.5024 57.24 78.8064 57.096C79.1104 56.968 79.3424 56.672 79.5024 56.208C78.8464 56.08 78.2544 55.824 77.7264 55.44C77.1984 55.04 76.8064 54.648 76.5504 54.264C76.2304 54.28 76.0704 54.536 76.0704 55.032C76.0704 55.592 76.2384 56.112 76.5744 56.592C76.9104 57.072 77.3824 57.312 77.9904 57.312ZM79.6464 55.728C79.6784 55.584 79.7024 55.432 79.7184 55.272C79.7344 55.096 79.7424 54.912 79.7424 54.72C79.7424 53.984 79.6464 53.248 79.4544 52.512C79.2784 51.776 79.1184 51.072 78.9744 50.4C78.6384 50.96 78.2704 51.52 77.8704 52.08C77.4704 52.64 77.0864 53.104 76.7184 53.472C76.9744 53.952 77.3504 54.408 77.8464 54.84C78.3424 55.272 78.9424 55.568 79.6464 55.728ZM95.2091 59.088C94.3451 59.088 93.5611 58.848 92.8571 58.368C92.1531 57.904 91.5931 57.224 91.1771 56.328C90.7611 55.432 90.5531 54.36 90.5531 53.112C90.5531 51.88 90.7451 50.632 91.1291 49.368C91.5131 48.104 92.0411 46.896 92.7131 45.744C93.3851 44.592 94.1451 43.568 94.9931 42.672C95.8411 41.776 96.7371 41.064 97.6811 40.536C98.6411 40.008 99.5851 39.744 100.513 39.744C101.153 39.744 101.665 39.872 102.049 40.128C102.433 40.384 102.705 40.72 102.865 41.136C103.041 41.552 103.129 42.008 103.129 42.504C103.129 43.064 103.033 43.616 102.841 44.16C102.649 44.704 102.385 45.152 102.049 45.504C101.729 45.856 101.369 46.032 100.969 46.032C100.825 46.032 100.681 45.992 100.537 45.912C100.393 45.816 100.257 45.648 100.129 45.408C100.369 45.248 100.633 44.968 100.921 44.568C101.225 44.152 101.481 43.696 101.689 43.2C101.913 42.688 102.025 42.224 102.025 41.808C102.025 41.456 101.921 41.168 101.713 40.944C101.505 40.704 101.145 40.584 100.633 40.584C99.9291 40.584 99.2011 40.864 98.4491 41.424C97.7131 41.968 96.9931 42.704 96.2891 43.632C95.6011 44.544 94.9771 45.568 94.4171 46.704C93.8571 47.824 93.4171 48.976 93.0971 50.16C92.7771 51.344 92.6171 52.464 92.6171 53.52C92.6171 54.976 92.9211 56.112 93.5291 56.928C94.1531 57.744 94.9211 58.152 95.8331 58.152C96.4571 58.152 97.0491 57.928 97.6091 57.48C98.1691 57.048 98.6651 56.48 99.0971 55.776C99.5291 55.056 99.8731 54.28 100.129 53.448C100.385 52.616 100.545 51.808 100.609 51.024C100.081 50.912 99.6251 50.84 99.2411 50.808C98.8571 50.76 98.4811 50.736 98.1131 50.736C97.8891 50.736 97.6571 50.744 97.4171 50.76C97.1771 50.76 96.9051 50.768 96.6011 50.784C96.7291 50.288 96.9371 49.936 97.2251 49.728C97.5131 49.504 97.8811 49.392 98.3291 49.392C98.7931 49.392 99.2651 49.472 99.7451 49.632C100.241 49.776 100.729 49.936 101.209 50.112C101.689 50.288 102.121 50.432 102.505 50.544L102.313 51.288C102.025 52.12 101.785 52.832 101.593 53.424C101.401 54.016 101.249 54.536 101.137 54.984C101.041 55.416 100.977 55.808 100.945 56.16C100.913 56.496 100.897 56.824 100.897 57.144C100.897 57.464 100.905 57.776 100.921 58.08C100.937 58.4 100.953 58.752 100.969 59.136C100.649 59.04 100.377 58.904 100.153 58.728C99.9451 58.552 99.7931 58.344 99.6971 58.104C99.6171 57.864 99.5771 57.6 99.5771 57.312C99.5771 57.168 99.5851 57.024 99.6011 56.88C99.6171 56.736 99.6491 56.584 99.6971 56.424C99.1211 57.176 98.4571 57.808 97.7051 58.32C96.9691 58.832 96.1371 59.088 95.2091 59.088ZM104.724 58.128C104.212 58.128 103.78 57.96 103.428 57.624C103.06 57.288 102.876 56.776 102.876 56.088C102.876 55.528 103.004 54.92 103.26 54.264C103.516 53.592 103.868 52.936 104.316 52.296C104.764 51.64 105.268 51.048 105.828 50.52C106.404 49.992 107.012 49.568 107.652 49.248C108.292 48.928 108.932 48.768 109.572 48.768C110.212 48.768 110.748 48.936 111.18 49.272C111.628 49.608 111.852 50.056 111.852 50.616C111.852 51.016 111.724 51.296 111.468 51.456C111.228 51.616 110.924 51.688 110.556 51.672C110.588 51.528 110.612 51.384 110.628 51.24C110.66 51.096 110.676 50.952 110.676 50.808C110.676 50.456 110.596 50.152 110.436 49.896C110.276 49.624 109.98 49.488 109.548 49.488C109.1 49.488 108.644 49.648 108.18 49.968C107.716 50.272 107.268 50.68 106.836 51.192C106.42 51.704 106.044 52.264 105.708 52.872C105.372 53.464 105.108 54.048 104.916 54.624C104.724 55.2 104.628 55.72 104.628 56.184C104.628 56.776 104.828 57.072 105.228 57.072C105.596 57.072 105.996 56.896 106.428 56.544C106.876 56.192 107.324 55.752 107.772 55.224C108.236 54.68 108.676 54.12 109.092 53.544C109.508 52.968 109.876 52.456 110.196 52.008C110.244 51.912 110.292 51.864 110.34 51.864C110.42 51.88 110.54 51.912 110.7 51.96C110.86 52.008 111.004 52.08 111.132 52.176C111.26 52.272 111.324 52.392 111.324 52.536C111.324 52.68 111.252 52.88 111.108 53.136C110.98 53.376 110.82 53.656 110.628 53.976C110.452 54.28 110.292 54.592 110.148 54.912C110.02 55.232 109.956 55.528 109.956 55.8C109.956 56.04 110.012 56.272 110.124 56.496C110.252 56.704 110.452 56.808 110.724 56.808C111.14 56.808 111.7 56.504 112.404 55.896C113.108 55.272 113.82 54.312 114.54 53.016L114.852 53.328C114.5 54.192 114.06 54.96 113.532 55.632C113.004 56.288 112.436 56.8 111.828 57.168C111.236 57.536 110.644 57.72 110.052 57.72C109.444 57.72 108.988 57.528 108.684 57.144C108.396 56.776 108.252 56.376 108.252 55.944C108.252 55.864 108.252 55.784 108.252 55.704C108.268 55.624 108.284 55.536 108.3 55.44C107.628 56.32 107.012 56.984 106.452 57.432C105.892 57.896 105.316 58.128 104.724 58.128ZM116.135 57.72C115.415 57.72 114.895 57.48 114.575 57C114.271 56.52 114.119 55.912 114.119 55.176C114.119 54.424 114.263 53.52 114.551 52.464C114.839 51.408 115.215 50.304 115.679 49.152C116.159 47.984 116.679 46.848 117.239 45.744C117.799 44.624 118.359 43.616 118.919 42.72C119.495 41.808 120.015 41.08 120.479 40.536C120.959 39.992 121.343 39.72 121.631 39.72C121.823 39.72 121.975 39.824 122.087 40.032C122.215 40.24 122.311 40.488 122.375 40.776C122.455 41.064 122.495 41.328 122.495 41.568C122.495 41.984 122.383 42.544 122.159 43.248C121.951 43.936 121.647 44.704 121.247 45.552C120.863 46.384 120.399 47.232 119.855 48.096C119.327 48.96 118.743 49.792 118.103 50.592C117.463 51.376 116.791 52.056 116.087 52.632C115.991 53.064 115.911 53.488 115.847 53.904C115.799 54.32 115.775 54.704 115.775 55.056C115.775 56.24 116.127 56.832 116.831 56.832C117.199 56.832 117.575 56.68 117.959 56.376C118.359 56.056 118.735 55.648 119.087 55.152C119.439 54.64 119.759 54.096 120.047 53.52C120.207 52.688 120.447 51.8 120.767 50.856C121.087 49.896 121.455 48.944 121.871 48C122.287 47.04 122.727 46.12 123.191 45.24C123.671 44.36 124.135 43.576 124.583 42.888C125.031 42.2 125.447 41.664 125.831 41.28C126.231 40.88 126.551 40.68 126.791 40.68C126.983 40.68 127.135 40.784 127.247 40.992C127.375 41.184 127.471 41.432 127.535 41.736C127.615 42.024 127.655 42.288 127.655 42.528C127.655 43.04 127.519 43.72 127.247 44.568C126.975 45.4 126.583 46.304 126.071 47.28C125.575 48.24 124.967 49.192 124.247 50.136C123.543 51.08 122.743 51.912 121.847 52.632C121.767 53.048 121.695 53.464 121.631 53.88C121.583 54.28 121.559 54.656 121.559 55.008C121.559 56.224 121.903 56.832 122.591 56.832C123.023 56.832 123.447 56.648 123.863 56.28C124.295 55.896 124.695 55.408 125.063 54.816C125.447 54.224 125.775 53.624 126.047 53.016L126.503 53.232C125.847 54.624 125.135 55.72 124.367 56.52C123.599 57.32 122.775 57.72 121.895 57.72C121.127 57.72 120.591 57.448 120.287 56.904C119.983 56.36 119.855 55.672 119.903 54.84C119.343 55.736 118.751 56.44 118.127 56.952C117.503 57.464 116.839 57.72 116.135 57.72ZM116.375 51.648C116.919 51.088 117.447 50.456 117.959 49.752C118.471 49.032 118.951 48.296 119.399 47.544C119.847 46.776 120.239 46.04 120.575 45.336C120.911 44.632 121.167 44 121.343 43.44C121.535 42.864 121.631 42.416 121.631 42.096C121.631 41.968 121.615 41.88 121.583 41.832C121.567 41.784 121.543 41.76 121.511 41.76C121.383 41.76 121.167 41.96 120.863 42.36C120.559 42.744 120.207 43.272 119.807 43.944C119.407 44.6 118.991 45.352 118.559 46.2C118.143 47.048 117.743 47.944 117.359 48.888C116.975 49.816 116.647 50.736 116.375 51.648ZM122.135 51.648C122.807 50.96 123.423 50.208 123.983 49.392C124.559 48.56 125.055 47.736 125.471 46.92C125.903 46.104 126.231 45.36 126.455 44.688C126.695 44 126.815 43.456 126.815 43.056C126.815 42.928 126.799 42.84 126.767 42.792C126.735 42.744 126.711 42.72 126.695 42.72C126.535 42.72 126.271 42.968 125.903 43.464C125.535 43.96 125.119 44.64 124.655 45.504C124.207 46.352 123.759 47.312 123.311 48.384C122.863 49.44 122.471 50.528 122.135 51.648ZM128.195 58.056C127.203 58.056 126.451 57.784 125.939 57.24C125.427 56.696 125.171 56.024 125.171 55.224C125.171 54.52 125.347 53.768 125.699 52.968C126.067 52.168 126.547 51.416 127.139 50.712C127.747 50.008 128.411 49.44 129.131 49.008C129.867 48.576 130.595 48.36 131.315 48.36C131.699 48.36 132.051 48.464 132.371 48.672C132.707 48.864 132.875 49.264 132.875 49.872C132.875 50.48 132.699 51.048 132.347 51.576C131.995 52.104 131.523 52.576 130.931 52.992C130.339 53.408 129.691 53.752 128.987 54.024C128.299 54.28 127.603 54.448 126.899 54.528C126.867 54.656 126.843 54.784 126.827 54.912C126.827 55.024 126.827 55.144 126.827 55.272C126.827 55.464 126.843 55.672 126.875 55.896C126.923 56.12 127.011 56.336 127.139 56.544C127.283 56.752 127.475 56.92 127.715 57.048C127.971 57.176 128.299 57.24 128.699 57.24C129.387 57.24 130.067 57.048 130.739 56.664C131.411 56.28 132.035 55.776 132.611 55.152C133.203 54.512 133.699 53.808 134.099 53.04L134.459 53.304C134.027 54.264 133.475 55.104 132.803 55.824C132.131 56.528 131.395 57.072 130.595 57.456C129.811 57.856 129.011 58.056 128.195 58.056ZM127.067 53.928C127.499 53.816 127.979 53.624 128.507 53.352C129.035 53.08 129.547 52.76 130.043 52.392C130.539 52.008 130.947 51.592 131.267 51.144C131.587 50.68 131.747 50.2 131.747 49.704C131.747 49.528 131.715 49.4 131.651 49.32C131.587 49.24 131.459 49.2 131.267 49.2C130.899 49.2 130.499 49.344 130.067 49.632C129.651 49.904 129.243 50.272 128.843 50.736C128.459 51.2 128.107 51.712 127.787 52.272C127.467 52.816 127.227 53.368 127.067 53.928ZM137.842 57.624C137.282 57.624 136.834 57.472 136.498 57.168C136.178 56.88 136.018 56.496 136.018 56.016C136.018 55.536 136.13 55.04 136.354 54.528C136.578 54 136.794 53.48 137.002 52.968C137.226 52.456 137.338 52 137.338 51.6C137.338 51.136 137.202 50.784 136.93 50.544C136.658 50.288 136.362 50.064 136.042 49.872C135.69 50.784 135.306 51.664 134.89 52.512C134.474 53.344 134.138 53.984 133.882 54.432L133.618 53.928C133.842 53.512 134.13 52.912 134.482 52.128C134.85 51.328 135.21 50.432 135.562 49.44C135.402 49.28 135.322 49.08 135.322 48.84C135.322 48.376 135.45 47.984 135.706 47.664C135.978 47.344 136.194 47.184 136.354 47.184C136.546 47.184 136.658 47.272 136.69 47.448C136.738 47.608 136.762 47.728 136.762 47.808C136.762 47.888 136.722 48.04 136.642 48.264C136.562 48.488 136.514 48.632 136.498 48.696C136.514 48.904 136.642 49.104 136.882 49.296C137.138 49.472 137.426 49.672 137.746 49.896C138.082 50.12 138.37 50.4 138.61 50.736C138.866 51.072 138.994 51.496 138.994 52.008C138.994 52.472 138.89 52.952 138.682 53.448C138.49 53.944 138.29 54.408 138.082 54.84C137.89 55.272 137.794 55.656 137.794 55.992C137.794 56.248 137.858 56.424 137.986 56.52C138.13 56.6 138.29 56.64 138.466 56.64C138.85 56.64 139.242 56.528 139.642 56.304C140.058 56.064 140.458 55.76 140.842 55.392C141.242 55.024 141.594 54.64 141.898 54.24C142.202 53.824 142.426 53.44 142.57 53.088L142.978 53.4C142.674 54.072 142.25 54.736 141.706 55.392C141.162 56.048 140.554 56.584 139.882 57C139.226 57.416 138.546 57.624 137.842 57.624ZM143.135 63.72C142.735 63.72 142.375 63.608 142.055 63.384C141.735 63.16 141.575 62.816 141.575 62.352C141.575 61.84 141.711 61.384 141.983 60.984C142.255 60.584 142.615 60.208 143.063 59.856C143.511 59.52 144.015 59.2 144.575 58.896C145.135 58.608 145.703 58.328 146.279 58.056C146.487 57.496 146.703 56.856 146.927 56.136C147.151 55.416 147.359 54.664 147.551 53.88C147.039 54.664 146.495 55.344 145.919 55.92C145.343 56.496 144.727 56.784 144.071 56.784C143.767 56.784 143.463 56.72 143.159 56.592C142.855 56.448 142.599 56.232 142.391 55.944C142.199 55.656 142.103 55.28 142.103 54.816C142.103 54.384 142.175 53.872 142.319 53.28C142.479 52.688 142.671 52.112 142.895 51.552C143.119 50.976 143.351 50.504 143.591 50.136C143.847 49.768 144.063 49.584 144.239 49.584C144.319 49.584 144.447 49.616 144.623 49.68C144.799 49.728 144.967 49.8 145.127 49.896C145.287 49.992 145.375 50.096 145.391 50.208C145.247 50.416 145.087 50.712 144.911 51.096C144.735 51.464 144.559 51.88 144.383 52.344C144.223 52.808 144.087 53.256 143.975 53.688C143.863 54.12 143.807 54.496 143.807 54.816C143.807 55.088 143.863 55.312 143.975 55.488C144.103 55.664 144.319 55.752 144.623 55.752C144.943 55.752 145.287 55.608 145.655 55.32C146.039 55.016 146.415 54.64 146.783 54.192C147.151 53.728 147.495 53.24 147.815 52.728C147.847 52.584 147.879 52.408 147.911 52.2C147.959 51.992 148.007 51.784 148.055 51.576C148.119 51.336 148.239 51.08 148.415 50.808C148.607 50.536 148.903 50.4 149.303 50.4C149.399 50.4 149.487 50.408 149.567 50.424C149.663 50.424 149.767 50.44 149.879 50.472C149.879 50.728 149.799 51.208 149.639 51.912C149.495 52.6 149.279 53.408 148.991 54.336C148.719 55.248 148.399 56.184 148.031 57.144C148.751 56.856 149.471 56.392 150.191 55.752C150.927 55.096 151.519 54.2 151.967 53.064L152.303 53.352C152.063 54.12 151.695 54.792 151.199 55.368C150.719 55.944 150.175 56.44 149.567 56.856C148.959 57.272 148.351 57.616 147.743 57.888C147.327 58.912 146.871 59.864 146.375 60.744C145.879 61.64 145.359 62.36 144.815 62.904C144.271 63.448 143.711 63.72 143.135 63.72ZM142.967 62.904C143.223 62.904 143.631 62.584 144.191 61.944C144.751 61.32 145.343 60.264 145.967 58.776C145.359 59.096 144.775 59.424 144.215 59.76C143.671 60.112 143.231 60.488 142.895 60.888C142.559 61.288 142.391 61.728 142.391 62.208C142.391 62.352 142.431 62.504 142.511 62.664C142.607 62.824 142.759 62.904 142.967 62.904Z" fill="#FF4F00"/>
<path d="M9.232 79.592C8.21867 76.3067 7.64267 74.664 7.504 74.664C7.376 74.664 6.928 75.88 6.16 78.312L5.776 79.528C6.24533 79.4533 6.76267 79.416 7.328 79.416C7.904 79.416 8.53867 79.4747 9.232 79.592ZM4.256 80.856C3.50933 81.1013 2.86933 81.4853 2.336 82.008C1.81333 82.5307 1.552 83.0213 1.552 83.48C1.552 83.704 1.60533 83.88 1.712 84.008C1.82933 84.1253 1.97867 84.184 2.16 84.184C2.74667 84.184 3.44533 83.0747 4.256 80.856ZM12.672 84.168C12.672 84.488 12.5867 84.7493 12.416 84.952C12.2453 85.144 12.032 85.24 11.776 85.24C11.3067 85.24 10.9493 84.8933 10.704 84.2C10.224 82.7707 9.84 81.5867 9.552 80.648C8.74133 80.5093 8 80.44 7.328 80.44C6.66667 80.44 6.05867 80.4933 5.504 80.6C4.81067 82.3387 4.29867 83.4693 3.968 83.992C3.43467 84.824 2.816 85.24 2.112 85.24C1.62133 85.24 1.232 85.0747 0.944 84.744C0.656 84.4133 0.512 84.0027 0.512 83.512C0.512 82.776 0.885333 82.0347 1.632 81.288C2.37867 80.5413 3.34933 80.0293 4.544 79.752C5.01333 78.4507 5.45067 77.1653 5.856 75.896C6.272 74.6267 6.50667 73.928 6.56 73.8C6.784 73.16 7.09333 72.84 7.488 72.84C7.92533 72.84 8.25067 73.1173 8.464 73.672C8.51733 73.8213 8.66667 74.264 8.912 75L10.496 79.8C10.9333 79.928 11.2907 80.0933 11.568 80.296C11.8453 80.4987 11.984 80.6747 11.984 80.824C11.984 81.0693 11.8507 81.192 11.584 81.192C11.488 81.192 11.232 81.1173 10.816 80.968C11.2747 82.4507 11.5733 83.2987 11.712 83.512C11.8507 83.7253 11.9627 83.8533 12.048 83.896C12.1333 83.9387 12.2293 83.9707 12.336 83.992C12.56 84.0347 12.672 84.0933 12.672 84.168ZM19.4621 81.336L19.5101 84.344C19.5101 84.888 19.3075 85.16 18.9021 85.16C18.4115 85.16 18.1661 84.7973 18.1661 84.072C18.1661 83.336 18.2728 82.2693 18.4861 80.872C18.4861 80.424 18.4381 79.8 18.3421 79C18.2568 78.1893 18.2141 77.6987 18.2141 77.528C18.2141 77.3573 18.2728 77.2027 18.3901 77.064C18.5075 76.9147 18.6568 76.84 18.8381 76.84C19.0195 76.84 19.1688 76.9147 19.2861 77.064C19.4035 77.2027 19.4621 77.3467 19.4621 77.496C19.4621 77.6453 19.4568 77.8853 19.4461 78.216C19.4461 78.5467 19.4461 78.776 19.4461 78.904C19.6488 78.3707 19.9795 77.8907 20.4381 77.464C20.9075 77.048 21.3715 76.84 21.8301 76.84C22.2995 76.84 22.6675 76.936 22.9341 77.128C23.2115 77.3093 23.3501 77.5173 23.3501 77.752C23.3501 77.9867 23.2915 78.168 23.1741 78.296C23.0568 78.424 22.9021 78.488 22.7101 78.488C22.5288 78.488 22.3261 78.392 22.1021 78.2C21.8995 77.9973 21.7288 77.896 21.5901 77.896C21.2381 77.896 20.8275 78.28 20.3581 79.048C19.8888 79.8053 19.5901 80.568 19.4621 81.336ZM31.8654 78.008L30.5374 77.976L30.5054 81.768C30.5054 82.7493 30.5427 83.3893 30.6174 83.688C30.692 83.976 30.9054 84.12 31.2574 84.12C31.428 84.12 31.6307 84.0667 31.8654 83.96C32.1 83.8427 32.244 83.784 32.2974 83.784C32.5214 83.784 32.6334 83.896 32.6334 84.12C32.6334 84.344 32.436 84.5733 32.0414 84.808C31.6467 85.0427 31.2574 85.16 30.8734 85.16C29.9454 85.16 29.4814 84.4773 29.4814 83.112L29.4654 77.976C29.1134 78.008 28.868 78.024 28.7294 78.024C28.196 78.024 27.9294 77.848 27.9294 77.496C27.9294 77.144 28.196 76.968 28.7294 76.968L29.4334 77L29.4014 75.208C29.4014 74.6747 29.604 74.408 30.0094 74.408C30.4147 74.408 30.6174 74.6747 30.6174 75.208L30.5694 77.016L31.8654 76.952C32.3987 76.952 32.6654 77.1333 32.6654 77.496C32.6654 77.8373 32.3987 78.008 31.8654 78.008ZM43.56 79.336L45.56 79.416C46.1147 79.416 46.6267 79.2773 47.096 79C47.5653 78.7227 47.8 78.3227 47.8 77.8C47.8 77 47.3947 76.4667 46.584 76.2C46.264 76.0933 46.04 75.992 45.912 75.896C45.784 75.8 45.72 75.672 45.72 75.512C45.72 75.16 45.9227 74.984 46.328 74.984C46.9147 74.984 47.4853 75.2773 48.04 75.864C48.6053 76.44 48.888 77.0587 48.888 77.72C48.888 78.3707 48.6907 78.8987 48.296 79.304C47.6133 80.0507 46.5573 80.424 45.128 80.424C45.416 80.904 45.56 81.4853 45.56 82.168C45.56 82.8507 45.2187 83.5333 44.536 84.216C43.864 84.8987 42.9413 85.24 41.768 85.24C40.5947 85.24 39.6293 84.8667 38.872 84.12C38.1253 83.3627 37.752 82.4187 37.752 81.288C37.752 80.648 37.9333 80.0293 38.296 79.432C38.6693 78.824 39.1653 78.312 39.784 77.896C39.432 77.5867 39.1387 77.224 38.904 76.808C38.68 76.392 38.568 75.976 38.568 75.56C38.568 74.8773 38.8133 74.296 39.304 73.816C39.7947 73.3253 40.4667 73.08 41.32 73.08C41.8747 73.08 42.3867 73.2027 42.856 73.448C43.3253 73.6933 43.56 73.96 43.56 74.248C43.56 74.408 43.512 74.536 43.416 74.632C43.32 74.728 43.208 74.776 43.08 74.776C42.952 74.776 42.7227 74.6693 42.392 74.456C42.072 74.232 41.688 74.12 41.24 74.12C40.8027 74.12 40.4347 74.248 40.136 74.504C39.8373 74.76 39.688 75.08 39.688 75.464C39.688 75.848 39.7787 76.216 39.96 76.568C40.1413 76.9093 40.3707 77.176 40.648 77.368C40.8293 77.2933 41.016 77.256 41.208 77.256C41.4107 77.256 41.608 77.2827 41.8 77.336C42.2267 77.4427 42.44 77.672 42.44 78.024C42.44 78.3653 42.216 78.5893 41.768 78.696C41.608 78.7387 41.4213 78.76 41.208 78.76C40.9947 78.76 40.776 78.7013 40.552 78.584C39.4533 79.128 38.904 80.0133 38.904 81.24C38.904 82.0613 39.1707 82.7547 39.704 83.32C40.248 83.8747 40.9253 84.152 41.736 84.152C42.5467 84.152 43.1973 83.928 43.688 83.48C44.1893 83.032 44.44 82.504 44.44 81.896C44.44 80.968 44.1733 80.504 43.64 80.504C43.5547 80.504 43.3787 80.552 43.112 80.648C42.8453 80.744 42.6427 80.792 42.504 80.792C42.376 80.792 42.2587 80.7387 42.152 80.632C42.056 80.5147 42.008 80.3547 42.008 80.152C42.008 79.9387 42.1573 79.752 42.456 79.592C42.7547 79.4213 43.1227 79.336 43.56 79.336ZM56.2264 82.36L56.3064 80.28C55.6024 80.248 55.053 80.0827 54.6584 79.784C54.2744 79.4747 54.0824 79.1173 54.0824 78.712C54.0824 78.3067 54.2744 77.9547 54.6584 77.656C55.053 77.3573 55.6024 77.1547 56.3064 77.048C56.2104 75.416 56.1624 74.488 56.1624 74.264C56.1624 73.2613 57.133 72.76 59.0744 72.76C60.4397 72.76 61.4957 73.0427 62.2424 73.608C62.9997 74.1627 63.3784 74.856 63.3784 75.688C63.3784 76.52 62.9624 77.2933 62.1304 78.008C63.549 78.7867 64.2584 79.8213 64.2584 81.112C64.2584 81.9547 63.997 82.7013 63.4744 83.352C62.9517 83.992 62.2744 84.4667 61.4424 84.776C60.6104 85.0853 59.773 85.24 58.9304 85.24C57.9917 85.24 57.133 85.128 56.3544 84.904C55.5757 84.6693 54.9784 84.3973 54.5624 84.088C54.1464 83.7787 53.9384 83.5227 53.9384 83.32C53.9384 83.1067 53.9917 82.9467 54.0984 82.84C54.205 82.7227 54.333 82.664 54.4824 82.664C54.4824 82.664 54.5037 82.664 54.5464 82.664C54.5997 82.664 54.7437 82.7387 54.9784 82.888C55.2237 83.0267 55.4957 83.192 55.7944 83.384C56.1037 83.576 56.5037 83.7467 56.9944 83.896C57.4957 84.0453 57.9917 84.12 58.4824 84.12C58.5144 84.12 58.5464 84.12 58.5784 84.12C59.8477 84.12 60.8984 83.8427 61.7304 83.288C62.5624 82.7333 62.9784 82.0187 62.9784 81.144C62.9784 80.6427 62.829 80.1787 62.5304 79.752C62.2317 79.3253 61.8264 78.984 61.3144 78.728C60.2157 79.5387 58.9304 80.04 57.4584 80.232L57.5224 82.28C57.5224 82.3227 57.5224 82.36 57.5224 82.392C57.5224 82.6693 57.4264 82.8667 57.2344 82.984C57.117 83.0587 56.9997 83.096 56.8824 83.096L56.5304 82.984C56.3277 82.856 56.2264 82.648 56.2264 82.36ZM57.4264 74.248C57.4264 74.6213 57.437 75.5227 57.4584 76.952C58.749 76.952 59.9704 77.1547 61.1224 77.56C61.837 77.016 62.1944 76.4187 62.1944 75.768C62.1944 75.1173 61.9277 74.6427 61.3944 74.344C60.861 74.0347 60.1944 73.88 59.3944 73.88C58.605 73.88 57.949 74.0027 57.4264 74.248ZM57.4264 78.04V79.144C57.8957 79.1227 58.413 79.032 58.9784 78.872C59.5544 78.7013 60.0024 78.5093 60.3224 78.296C59.7357 78.104 58.9197 78.008 57.8744 78.008C57.6824 78.008 57.533 78.0187 57.4264 78.04ZM56.3224 79.208V78.12C55.565 78.2053 55.1864 78.3813 55.1864 78.648C55.1864 79 55.565 79.1867 56.3224 79.208ZM70.9814 81.016C70.9814 81.9013 71.2267 82.6533 71.7174 83.272C72.208 83.8907 72.8214 84.2 73.5574 84.2C74.304 84.2 74.9334 83.8907 75.4454 83.272C75.968 82.6427 76.2294 81.8853 76.2294 81C76.2294 80.1147 75.9787 79.3627 75.4774 78.744C74.9867 78.1147 74.3734 77.8 73.6374 77.8C72.912 77.8 72.2827 78.1147 71.7494 78.744C71.2374 79.3733 70.9814 80.1307 70.9814 81.016ZM70.9014 84.024C70.1974 83.2027 69.8454 82.2 69.8454 81.016C69.8454 79.832 70.2027 78.8293 70.9174 78.008C71.632 77.176 72.5334 76.76 73.6214 76.76C74.7094 76.76 75.6054 77.1707 76.3094 77.992C77.0134 78.8027 77.3654 79.8053 77.3654 81C77.3654 82.184 77.0027 83.1867 76.2774 84.008C75.5627 84.8293 74.6614 85.24 73.5734 85.24C72.496 85.24 71.6054 84.8347 70.9014 84.024ZM83.9658 81.016C83.9658 81.9013 84.2111 82.6533 84.7018 83.272C85.1924 83.8907 85.8058 84.2 86.5418 84.2C87.2884 84.2 87.9178 83.8907 88.4298 83.272C88.9524 82.6427 89.2138 81.8853 89.2138 81C89.2138 80.1147 88.9631 79.3627 88.4618 78.744C87.9711 78.1147 87.3578 77.8 86.6218 77.8C85.8964 77.8 85.2671 78.1147 84.7338 78.744C84.2218 79.3733 83.9658 80.1307 83.9658 81.016ZM83.8858 84.024C83.1818 83.2027 82.8298 82.2 82.8298 81.016C82.8298 79.832 83.1871 78.8293 83.9018 78.008C84.6164 77.176 85.5178 76.76 86.6058 76.76C87.6938 76.76 88.5898 77.1707 89.2938 77.992C89.9978 78.8027 90.3498 79.8053 90.3498 81C90.3498 82.184 89.9871 83.1867 89.2618 84.008C88.5471 84.8293 87.6458 85.24 86.5578 85.24C85.4804 85.24 84.5898 84.8347 83.8858 84.024ZM97.4301 80.872L97.4781 84.344C97.4781 84.888 97.2755 85.16 96.8701 85.16C96.3795 85.16 96.1341 84.7973 96.1341 84.072C96.1341 83.336 96.2408 82.2693 96.4541 80.872C96.4541 80.1467 96.4061 78.7813 96.3101 76.776C96.2141 74.76 96.1661 73.672 96.1661 73.512C96.1661 73.352 96.2195 73.1973 96.3261 73.048C96.4435 72.8987 96.5608 72.824 96.6781 72.824C96.8061 72.824 96.9235 72.8507 97.0301 72.904C97.2861 73.0213 97.4141 73.2293 97.4141 73.528C97.4141 73.5707 97.4141 73.608 97.4141 73.64V78.872C98.1928 77.5173 99.1528 76.84 100.294 76.84C100.902 76.84 101.393 77.0213 101.766 77.384C102.15 77.736 102.342 78.1787 102.342 78.712C102.342 79.5867 101.889 80.3333 100.982 80.952L100.198 81.464L101.382 83.288C101.521 83.512 101.675 83.6827 101.846 83.8C102.027 83.9173 102.177 83.9867 102.294 84.008C102.422 84.0187 102.523 84.0347 102.598 84.056C102.673 84.0773 102.705 84.12 102.694 84.184C102.694 84.44 102.614 84.6693 102.454 84.872C102.294 85.064 102.102 85.16 101.878 85.16C101.835 85.16 101.75 85.16 101.622 85.16C101.355 85.16 101.025 84.8347 100.63 84.184C100.619 84.152 100.603 84.1253 100.582 84.104C100.571 84.0827 100.379 83.7733 100.006 83.176C99.6328 82.568 99.3395 82.1147 99.1261 81.816C98.8488 81.816 98.6195 81.7413 98.4381 81.592C98.2568 81.4427 98.1661 81.2293 98.1661 80.952C98.1661 80.6747 98.3208 80.472 98.6301 80.344C98.7155 80.312 98.8008 80.296 98.8861 80.296C99.1315 80.296 99.3928 80.4293 99.6701 80.696C100.075 80.5147 100.433 80.2373 100.742 79.864C101.062 79.4907 101.222 79.1547 101.222 78.856C101.222 78.216 100.891 77.896 100.23 77.896C99.6328 77.896 99.0675 78.1947 98.5341 78.792C98.0008 79.3893 97.6328 80.0827 97.4301 80.872ZM113.89 82.696C113.89 83.4107 113.592 84.0027 112.994 84.472C112.408 84.9307 111.704 85.16 110.882 85.16C110.061 85.16 109.341 84.9733 108.722 84.6C108.114 84.216 107.81 83.8373 107.81 83.464C107.81 83.2187 107.912 83.0533 108.114 82.968C108.317 82.8827 108.472 82.8933 108.578 83C108.6 83.0107 108.813 83.2187 109.218 83.624C109.336 83.7307 109.554 83.8427 109.874 83.96C110.194 84.0667 110.477 84.12 110.722 84.12C111.32 84.12 111.805 83.9973 112.178 83.752C112.552 83.5067 112.738 83.16 112.738 82.712C112.738 82.1467 112.205 81.6827 111.138 81.32C109.954 80.9147 109.197 80.568 108.866 80.28C108.706 80.1413 108.557 79.96 108.418 79.736C108.29 79.5013 108.226 79.256 108.226 79C108.226 78.424 108.488 77.9227 109.01 77.496C109.544 77.0587 110.178 76.84 110.914 76.84C111.65 76.84 112.248 76.968 112.706 77.224C113.165 77.4693 113.394 77.7467 113.394 78.056C113.394 78.408 113.208 78.584 112.834 78.584C112.685 78.584 112.525 78.5253 112.354 78.408C111.842 78.056 111.346 77.88 110.866 77.88C110.397 77.88 110.04 77.9867 109.794 78.2C109.506 78.4027 109.362 78.6427 109.362 78.92C109.362 79.1867 109.501 79.4053 109.778 79.576C110.056 79.7467 110.509 79.96 111.138 80.216C111.768 80.4613 112.152 80.616 112.29 80.68C112.76 80.8827 113.144 81.16 113.442 81.512C113.741 81.864 113.89 82.2587 113.89 82.696Z" fill="#250C00"/>
</svg>
